<svg width="20" height="20" viewBox="0 0 20 20" fill="none" xmlns="http://www.w3.org/2000/svg">
<g clipPath="url(#clip0_2421_3519)">
<path d="M4.19356 16.7744C3.66001 16.7744 3.22583 17.2086 3.22583 17.7421C3.22583 18.2757 3.66001 18.7099 4.19356 18.7099C4.72712 18.7099 5.1613 18.2757 5.1613 17.7421C5.1613 17.2086 4.72712 16.7744 4.19356 16.7744ZM4.19356 18.0648C4.01552 18.0648 3.87099 17.9202 3.87099 17.7422C3.87099 17.5641 4.01552 17.4196 4.19356 17.4196C4.37161 17.4196 4.51614 17.5641 4.51614 17.7422C4.51614 17.9202 4.37161 18.0648 4.19356 18.0648Z" fill="#276955"/>
<path d="M15.1613 16.7744C14.6278 16.7744 14.1936 17.2086 14.1936 17.7421C14.1936 18.2757 14.6278 18.7099 15.1613 18.7099C15.6949 18.7099 16.1291 18.2757 16.1291 17.7421C16.1291 17.2086 15.6949 16.7744 15.1613 16.7744ZM15.1613 18.0648C14.9833 18.0648 14.8388 17.9202 14.8388 17.7422C14.8388 17.5641 14.9833 17.4196 15.1613 17.4196C15.3394 17.4196 15.4839 17.5641 15.4839 17.7422C15.4839 17.9202 15.3394 18.0648 15.1613 18.0648Z" fill="#276955"/>
<path d="M17.0968 12.2577H16.9596L14.7016 8.38672H13.2258V9.03188H12.258C11.7245 9.03188 11.2903 9.46606 11.2903 9.99961V12.2577H7.41098C7.61582 11.9873 7.74195 11.6544 7.74195 11.2899C7.74195 11.057 7.65613 10.8464 7.51871 10.6789L8.06453 10.1331L8.48164 10.5502L8.93777 10.0941L7.64746 8.80379L7.19133 9.25992L7.60844 9.67703L6.94586 10.3396C6.89004 10.3296 6.83297 10.3222 6.77426 10.3222H6.31813L6.47941 8.38672H4.97426L2.74426 12.289C1.50359 12.4635 0.501367 13.4151 0.290078 14.6835L0.0203125 16.3013C0.00675781 16.3835 0 16.4668 0 16.55C0 17.3851 0.679024 18.0642 1.51418 18.0642H1.96129C2.11871 19.1564 3.0584 19.9997 4.19355 19.9997C5.32871 19.9997 6.2684 19.1564 6.42582 18.0642H12.9291C13.0865 19.1565 14.0262 19.9997 15.1613 19.9997C16.2965 19.9997 17.2362 19.1564 17.3936 18.0642H18.3871C19.2765 18.0642 20 17.3406 20 16.4513V15.161C20 13.56 18.6977 12.2577 17.0968 12.2577ZM16.7384 16.1287C16.331 15.7303 15.7745 15.4835 15.1613 15.4835C14.548 15.4835 13.9916 15.7303 13.5842 16.1287H13.0368L13.0532 16.1122C13.92 15.2455 14.4235 14.1155 14.5003 12.9029H17.0968C17.7103 12.9029 18.2664 13.1497 18.6739 13.5481H17.4193C17.0635 13.5481 16.7742 13.8374 16.7742 14.1932V14.5158C16.7742 15.0493 17.2084 15.4835 17.7419 15.4835H19.3548V16.1287H16.7384ZM2.61645 16.1287H0.703242L0.810664 15.4835H3.10262L4.07035 13.5481H1.57195C1.98129 13.1465 2.54098 12.9029 3.15422 12.9029H4.39133H4.83875V15.5787C4.63422 15.5174 4.41777 15.4836 4.19359 15.4836C3.58 15.4835 3.02387 15.7303 2.61645 16.1287ZM1.11324 14.1932H3.02648L2.70391 14.8384H0.918398L0.926445 14.7897C0.961601 14.5784 1.02582 14.3787 1.11324 14.1932ZM5.48387 12.9029H6.12902H13.2258H13.8551C13.7793 13.9429 13.3419 14.9113 12.5967 15.6561L12.1245 16.1287H5.77066C5.68195 16.042 5.58582 15.9626 5.48391 15.8913V12.9029H5.48387ZM6.23066 16.7738H13.1242C13.0284 16.9745 12.962 17.1913 12.9291 17.419H6.42582C6.39289 17.1913 6.32645 16.9745 6.23066 16.7738ZM17.742 14.8384C17.5639 14.8384 17.4194 14.6938 17.4194 14.5158V14.1932H19.1339C19.2297 14.3939 19.2962 14.6106 19.3291 14.8384H17.742ZM13.871 9.03191H14.331L16.2126 12.2577H13.871V9.03191ZM11.9355 9.99965C11.9355 9.82192 12.08 9.67707 12.258 9.67707H13.2258V12.2577H11.9355V9.99965ZM7.09676 11.29C7.09676 11.8235 6.66258 12.2577 6.12902 12.2577H5.28645L5.64258 11.188C5.68676 11.0557 5.81 10.9673 5.94871 10.9673H6.77418C6.95227 10.9674 7.09676 11.1119 7.09676 11.29ZM5.3484 9.03191H5.7784L5.66742 10.3652C5.37289 10.4545 5.13195 10.6803 5.03098 10.9836L4.60613 12.2577H3.50516L5.3484 9.03191ZM0.678047 16.7738H2.15645C2.06063 16.9745 1.99418 17.1913 1.96129 17.419H1.51418C1.11324 17.419 0.777734 17.1442 0.678047 16.7738ZM4.19355 19.3545C3.30422 19.3545 2.58066 18.6309 2.58066 17.7416C2.58066 16.8523 3.30422 16.1287 4.19355 16.1287C5.08289 16.1287 5.80645 16.8523 5.80645 17.7416C5.80645 18.6309 5.08289 19.3545 4.19355 19.3545ZM15.1613 19.3545C14.272 19.3545 13.5484 18.6309 13.5484 17.7416C13.5484 16.8523 14.272 16.1287 15.1613 16.1287C16.0506 16.1287 16.7742 16.8523 16.7742 17.7416C16.7742 18.6309 16.0507 19.3545 15.1613 19.3545ZM18.3871 17.419H17.3936C17.3607 17.1913 17.2942 16.9745 17.1984 16.7738H19.2955C19.162 17.1484 18.8071 17.419 18.3871 17.419Z" fill="#276955"/>
<path d="M9.35474 13.5488H11.2902V14.194H9.35474V13.5488Z" fill="#276955"/>
<path d="M4.5161 7.09676H5.80641V6.4516H4.5161C3.62677 6.4516 2.90321 5.72805 2.90321 4.83871C2.90321 3.95 3.62579 3.22676 4.52997 3.22676H4.53192L4.84259 3.23902L4.89677 2.97031C5.16872 1.6232 6.36516 0.645156 7.74192 0.645156C8.80419 0.645156 9.78094 1.22516 10.2909 2.15871L10.4548 2.4584L10.7448 2.27773C11.1041 2.05387 11.5158 1.93547 11.9355 1.93547C12.8648 1.93547 13.7119 2.52031 14.0435 3.39094L14.1942 3.78578L14.5355 3.53676C14.8139 3.3332 15.1416 3.22578 15.4839 3.22578C16.3732 3.22578 17.0968 3.94934 17.0968 4.83867C17.0968 5.72801 16.3732 6.45156 15.4839 6.45156H14.1936V7.09672H15.4839C16.7287 7.09672 17.7419 6.08383 17.7419 4.83867C17.7419 3.59352 16.7287 2.58063 15.4839 2.58063C15.1345 2.58063 14.7955 2.66063 14.4868 2.81387C13.9852 1.88934 13.0026 1.29031 11.9355 1.29031C11.5039 1.29031 11.079 1.38742 10.69 1.5732C10.0341 0.595469 8.93192 0 7.74192 0C6.14739 0 4.75032 1.07418 4.32516 2.58871C3.16903 2.68582 2.25806 3.65773 2.25806 4.83871C2.25802 6.08387 3.27126 7.09676 4.5161 7.09676Z" fill="#276955"/>
<path d="M10.9677 3.87105C10.9677 3.3375 10.5335 2.90332 9.99996 2.90332C9.46641 2.90332 9.03223 3.3375 9.03223 3.87105C9.03223 4.40461 9.46641 4.83879 9.99996 4.83879C10.5335 4.83879 10.9677 4.40461 10.9677 3.87105ZM9.99996 4.19363C9.82191 4.19363 9.67738 4.04879 9.67738 3.87105C9.67738 3.69332 9.82191 3.54848 9.99996 3.54848C10.178 3.54848 10.3225 3.69332 10.3225 3.87105C10.3225 4.04879 10.178 4.19363 9.99996 4.19363Z" fill="#276955"/>
<path d="M7.74187 4.83883C7.74187 4.30527 7.30769 3.87109 6.77413 3.87109C6.24058 3.87109 5.8064 4.30527 5.8064 4.83883C5.8064 5.37238 6.24058 5.80656 6.77413 5.80656C7.30765 5.80656 7.74187 5.37238 7.74187 4.83883ZM6.45151 4.83883C6.45151 4.66109 6.59605 4.51625 6.77409 4.51625C6.95214 4.51625 7.09667 4.66109 7.09667 4.83883C7.09667 5.01656 6.95214 5.16141 6.77409 5.16141C6.59605 5.16141 6.45151 5.01656 6.45151 4.83883Z" fill="#276955"/>
<path d="M14.1935 4.83883C14.1935 4.30527 13.7593 3.87109 13.2258 3.87109C12.6922 3.87109 12.2581 4.30527 12.2581 4.83883C12.2581 5.37238 12.6922 5.80656 13.2258 5.80656C13.7593 5.80656 14.1935 5.37238 14.1935 4.83883ZM13.2258 5.16141C13.0477 5.16141 12.9032 5.01656 12.9032 4.83883C12.9032 4.66109 13.0477 4.51625 13.2258 4.51625C13.4038 4.51625 13.5484 4.66109 13.5484 4.83883C13.5484 5.01656 13.4038 5.16141 13.2258 5.16141Z" fill="#276955"/>
<path d="M9.67749 5.4834H10.3226V8.38664H9.67749V5.4834Z" fill="#276955"/>
<path d="M11.6129 7.74152H13.5484V6.45117H12.9033V7.09633H10.9678V8.38668H11.6129V7.74152Z" fill="#276955"/>
<path d="M9.03232 8.38668V7.09633H7.09682V6.45117H6.45166V7.74152H8.38717V8.38668H9.03232Z" fill="#276955"/>
</g>
<defs>
<clipPath id="clip0_2421_3519">
<rect width="20" height="20" fill="white"/>
</clipPath>
</defs>
</svg>
