<svg width="20" height="20" viewBox="0 0 20 20" fill="none" xmlns="http://www.w3.org/2000/svg">
<path d="M13.7294 2.27666C13.5771 2.12393 13.3294 2.12393 13.1771 2.27666C13.0243 2.429 13.0243 2.67666 13.1771 2.829C13.3294 2.98174 13.5771 2.98174 13.7294 2.829C13.8821 2.67666 13.8821 2.429 13.7294 2.27666Z" fill="#276955"/>
<path d="M18.2133 4.91227C18.247 4.7673 18.2645 4.6184 18.2645 4.46723C18.2645 3.94527 18.0612 3.45477 17.6922 3.08629C15.7605 1.15496 12.8849 0.00195312 10 0.00195312C7.11508 0.00195312 4.23949 1.15496 2.30793 3.08609C1.93883 3.45473 1.73555 3.9452 1.73555 4.46719C1.73555 4.61852 1.75301 4.7675 1.78668 4.91227C0.617148 6.56492 0 8.50785 0 10.5441V15.3098C0 16.1713 0.700938 16.8723 1.5625 16.8723C1.57559 16.8723 1.58859 16.8718 1.60164 16.8714C1.75711 17.636 2.36055 18.2397 3.125 18.3955V18.4348C3.125 19.2963 3.82594 19.9973 4.6875 19.9973C5.54906 19.9973 6.25 19.2963 6.25 18.4348V12.1848C6.25 11.7676 6.08742 11.3752 5.79223 11.08C5.49703 10.7848 5.10469 10.6223 4.6875 10.6223C3.82594 10.6223 3.125 11.3232 3.125 12.1848V12.2241C2.83648 12.2829 2.57098 12.4055 2.34375 12.5764V11.3254C2.34375 9.86609 2.78426 7.70539 3.60312 6.41844C3.6316 6.41965 3.66012 6.42031 3.68867 6.42031C4.21063 6.42031 4.70113 6.21703 5.06945 5.8482C6.26766 4.65109 8.15691 3.90742 10 3.90742C11.8431 3.90742 13.7324 4.65109 14.9302 5.84789C15.2989 6.21703 15.7893 6.42031 16.3113 6.42031C16.3412 6.42031 16.371 6.41961 16.4007 6.41828C17.2227 7.64207 17.6562 9.06351 17.6562 10.5441V12.5764C17.429 12.4055 17.1635 12.2829 16.875 12.2241V12.1848C16.875 11.3232 16.1741 10.6223 15.3125 10.6223C14.8953 10.6223 14.5029 10.7848 14.2078 11.08C13.9126 11.3753 13.75 11.7676 13.75 12.1848V18.4348C13.75 19.2963 14.4509 19.9973 15.3125 19.9973C16.1741 19.9973 16.875 19.2963 16.875 18.4348V18.3955C17.6395 18.2397 18.2429 17.636 18.3984 16.8714C18.4114 16.8718 18.4244 16.8723 18.4375 16.8723C19.2991 16.8723 20 16.1713 20 15.3098V10.5441C20 8.50785 19.3829 6.56492 18.2133 4.91227ZM3.90625 12.1848C3.90625 11.754 4.25672 11.4035 4.6875 11.4035C4.89602 11.4035 5.09215 11.4848 5.23981 11.6325C5.38746 11.7801 5.46875 11.9762 5.46875 12.1848V18.4348C5.46875 18.8655 5.11828 19.216 4.6875 19.216C4.25672 19.216 3.90625 18.8655 3.90625 18.4348V12.1848ZM16.0938 18.4348C16.0938 18.8655 15.7433 19.216 15.3125 19.216C14.8817 19.216 14.5312 18.8655 14.5312 18.4348V12.1848C14.5312 11.9762 14.6126 11.7801 14.7602 11.6325C14.9078 11.4848 15.104 11.4035 15.3125 11.4035C15.7433 11.4035 16.0938 11.754 16.0938 12.1848V18.4348ZM17.6562 16.4816C17.6562 16.9909 17.3296 17.4251 16.875 17.5863V13.0332C17.3296 13.1945 17.6562 13.6286 17.6562 14.1379V16.4816ZM1.5625 16.091C1.13172 16.091 0.78125 15.7405 0.78125 15.3098C0.78125 14.879 1.13172 14.5285 1.5625 14.5285V16.091ZM3.125 13.0332V17.5863C2.67035 17.4251 2.34375 16.9909 2.34375 16.4816V14.1379C2.34375 13.6287 2.67035 13.1945 3.125 13.0332ZM1.5625 11.3254V13.7473C1.27801 13.7473 1.01125 13.8241 0.78125 13.9575V10.5441C0.78125 8.81363 1.26594 7.15672 2.18766 5.7159C2.22563 5.76129 2.26527 5.80562 2.30773 5.84812C2.45781 5.9982 2.62859 6.12094 2.81395 6.21402C1.99117 7.64894 1.5625 9.79484 1.5625 11.3254ZM16.5213 5.62051L16.5205 5.62062C16.4528 5.63285 16.3824 5.63906 16.3114 5.63906C15.9982 5.63906 15.7041 5.51715 15.4828 5.29555C14.1231 3.93715 12.0735 3.12617 10 3.12617C7.92648 3.12617 5.87687 3.93715 4.51695 5.29582C4.2959 5.51715 4.00176 5.63906 3.68867 5.63906C3.61762 5.63906 3.54723 5.63285 3.4791 5.62059C3.24473 5.57852 3.0307 5.46617 2.8602 5.29566C2.73375 5.16922 2.64051 5.02199 2.58277 4.85707C2.53898 4.73301 2.5168 4.60184 2.5168 4.46719C2.5168 4.15406 2.63871 3.85992 2.86016 3.63875C4.64859 1.8507 7.3177 0.783203 10 0.783203C12.6823 0.783203 15.3514 1.8507 17.14 3.63887C17.3613 3.85992 17.4832 4.15406 17.4832 4.46719C17.4832 4.6018 17.461 4.73301 17.4168 4.85809C17.3595 5.02199 17.2663 5.16922 17.1395 5.2959C16.9692 5.46656 16.7554 5.57879 16.5213 5.62051ZM18.4375 16.091V14.5285C18.8683 14.5285 19.2188 14.879 19.2188 15.3098C19.2188 15.7405 18.8683 16.091 18.4375 16.091ZM19.2188 13.9575C18.9888 13.8241 18.722 13.7473 18.4375 13.7473V10.5441C18.4375 8.99781 18.0097 7.50973 17.1962 6.20918C17.3777 6.11672 17.545 5.99562 17.6922 5.84812C17.7347 5.80562 17.7743 5.76129 17.8123 5.7159C18.7341 7.15672 19.2188 8.81363 19.2188 10.5441V13.9575Z" fill="#276955"/>
<path d="M12.5781 14.5292H11.8675L11.1602 11.7001C11.1173 11.5286 10.9645 11.4073 10.7878 11.4043C10.6123 11.4023 10.4543 11.5175 10.4057 11.6876L9.19004 15.9422L8.80809 14.7964C8.75492 14.6369 8.60563 14.5292 8.4375 14.5292H7.42188C7.20613 14.5292 7.03125 14.7041 7.03125 14.9199C7.03125 15.1356 7.20613 15.3105 7.42188 15.3105H8.15594V15.3104L8.84816 17.3871C8.90141 17.5468 9.0509 17.6542 9.21867 17.6542C9.22152 17.6542 9.22437 17.6541 9.22723 17.6541C9.39844 17.6504 9.5473 17.5355 9.59434 17.3709L10.7561 13.3048L11.1835 15.0146C11.227 15.1885 11.3832 15.3105 11.5625 15.3105H12.5781C12.7938 15.3105 12.9687 15.1356 12.9687 14.9199C12.9687 14.7041 12.7938 14.5292 12.5781 14.5292Z" fill="#276955"/>
<path d="M12.3085 1.80188C11.5544 1.62375 10.5936 1.56055 9.99994 1.56055C8.7524 1.56055 7.40096 1.80648 6.38483 2.21844C6.1849 2.29949 6.08854 2.5273 6.16959 2.72723C6.23115 2.8791 6.37733 2.97117 6.53174 2.97117C6.58061 2.97117 6.63029 2.96195 6.67838 2.94246C7.59221 2.57195 8.86498 2.3418 9.99994 2.3418C10.5952 2.3418 11.4843 2.40996 12.1289 2.56219C12.3388 2.6118 12.5493 2.4818 12.5989 2.27184C12.6484 2.06187 12.5185 1.85148 12.3085 1.80188Z" fill="#276955"/>
</svg>
