<svg width="20" height="20" viewBox="0 0 20 20" fill="none" xmlns="http://www.w3.org/2000/svg">
<path d="M10 1.5625H2.5C2.41712 1.5625 2.33763 1.59542 2.27903 1.65403C2.22042 1.71263 2.1875 1.79212 2.1875 1.875V7.5C2.1875 7.58288 2.22042 7.66237 2.27903 7.72097C2.33763 7.77958 2.41712 7.8125 2.5 7.8125H10C10.0829 7.8125 10.1624 7.77958 10.221 7.72097C10.2796 7.66237 10.3125 7.58288 10.3125 7.5V1.875C10.3125 1.79212 10.2796 1.71263 10.221 1.65403C10.1624 1.59542 10.0829 1.5625 10 1.5625ZM9.6875 7.1875H2.8125V2.1875H9.6875V7.1875Z" fill="#276955"/>
<path d="M5.66562 4.13437L5.3125 5.875C5.31097 5.8958 5.31097 5.91669 5.3125 5.9375C5.3125 6.18614 5.41127 6.4246 5.58709 6.60041C5.7629 6.77623 6.00136 6.875 6.25 6.875C6.49864 6.875 6.7371 6.77623 6.91291 6.60041C7.08873 6.4246 7.1875 6.18614 7.1875 5.9375C7.18903 5.91669 7.18903 5.8958 7.1875 5.875L6.84062 4.13437C7.38489 4.2667 7.86895 4.57797 8.21518 5.01827C8.56141 5.45857 8.74975 6.00238 8.75 6.5625H9.375C9.37457 5.81198 9.10404 5.08668 8.61287 4.51919C8.1217 3.95171 7.4427 3.57995 6.7 3.47187L6.5625 2.75C6.5625 2.66712 6.52958 2.58763 6.47097 2.52903C6.41237 2.47042 6.33288 2.4375 6.25 2.4375C6.16712 2.4375 6.08763 2.47042 6.02903 2.52903C5.97042 2.58763 5.9375 2.66712 5.9375 2.75L5.79375 3.47187C5.05219 3.58132 4.37467 3.95367 3.88477 4.52101C3.39486 5.08836 3.12521 5.81291 3.125 6.5625H3.75C3.75059 6.00154 3.93982 5.45707 4.28727 5.01666C4.63473 4.57625 5.1202 4.2655 5.66562 4.13437ZM6.25 4.40625L6.5625 5.96875C6.5625 6.05163 6.52958 6.13112 6.47097 6.18972C6.41237 6.24833 6.33288 6.28125 6.25 6.28125C6.16712 6.28125 6.08763 6.24833 6.02903 6.18972C5.97042 6.13112 5.9375 6.05163 5.9375 5.96875L6.25 4.40625Z" fill="#276955"/>
<path d="M6.25 13.75C6.42259 13.75 6.5625 13.6101 6.5625 13.4375C6.5625 13.2649 6.42259 13.125 6.25 13.125C6.07741 13.125 5.9375 13.2649 5.9375 13.4375C5.9375 13.6101 6.07741 13.75 6.25 13.75Z" fill="#276955"/>
<path d="M7.27812 12.903C7.23468 12.9468 7.20517 13.0025 7.19332 13.063C7.18147 13.1236 7.18781 13.1863 7.21153 13.2432C7.23526 13.3002 7.27532 13.3488 7.32665 13.3831C7.37798 13.4173 7.4383 13.4355 7.5 13.4355C7.56169 13.4355 7.62201 13.4173 7.67335 13.3831C7.72468 13.3488 7.76473 13.3002 7.78846 13.2432C7.81219 13.1863 7.81853 13.1236 7.80668 13.063C7.79483 13.0025 7.76532 12.9468 7.72187 12.903C7.69282 12.8737 7.65826 12.8504 7.62018 12.8346C7.5821 12.8187 7.54125 12.8105 7.5 12.8105C7.45874 12.8105 7.4179 12.8187 7.37982 12.8346C7.34174 12.8504 7.30718 12.8737 7.27812 12.903Z" fill="#276955"/>
<path d="M4.77813 12.903C4.73468 12.9468 4.70517 13.0025 4.69332 13.063C4.68147 13.1236 4.68781 13.1863 4.71153 13.2432C4.73526 13.3002 4.77532 13.3488 4.82665 13.3831C4.87799 13.4173 4.93831 13.4355 5 13.4355C5.0617 13.4355 5.12202 13.4173 5.17336 13.3831C5.22469 13.3488 5.26475 13.3002 5.28847 13.2432C5.3122 13.1863 5.31854 13.1236 5.30669 13.063C5.29484 13.0025 5.26533 12.9468 5.22188 12.903C5.19283 12.8737 5.15827 12.8504 5.12019 12.8346C5.0821 12.8187 5.04126 12.8105 5 12.8105C4.95875 12.8105 4.9179 12.8187 4.87982 12.8346C4.84174 12.8504 4.80718 12.8737 4.77813 12.903Z" fill="#276955"/>
<path d="M8.75 11.25C8.92259 11.25 9.0625 11.1101 9.0625 10.9375C9.0625 10.7649 8.92259 10.625 8.75 10.625C8.57741 10.625 8.4375 10.7649 8.4375 10.9375C8.4375 11.1101 8.57741 11.25 8.75 11.25Z" fill="#276955"/>
<path d="M8.65937 9.90952C8.70282 9.86571 8.73233 9.81002 8.74418 9.74948C8.75603 9.68893 8.74969 9.62623 8.72596 9.56927C8.70223 9.51232 8.66218 9.46367 8.61085 9.42944C8.55951 9.39522 8.49919 9.37695 8.4375 9.37695C8.3758 9.37695 8.31548 9.39522 8.26415 9.42944C8.21282 9.46367 8.17276 9.51232 8.14903 9.56927C8.12531 9.62623 8.11897 9.68893 8.13082 9.74948C8.14267 9.81002 8.17218 9.86571 8.21562 9.90952C8.24468 9.93881 8.27924 9.96205 8.31732 9.97792C8.3554 9.99379 8.39624 10.002 8.4375 10.002C8.47875 10.002 8.5196 9.99379 8.55768 9.97792C8.59576 9.96205 8.63032 9.93881 8.65937 9.90952Z" fill="#276955"/>
<path d="M8.21562 11.9655C8.17218 12.0093 8.14267 12.065 8.13082 12.1255C8.11897 12.1861 8.12531 12.2488 8.14903 12.3057C8.17276 12.3627 8.21282 12.4113 8.26415 12.4456C8.31548 12.4798 8.3758 12.498 8.4375 12.498C8.49919 12.498 8.55951 12.4798 8.61085 12.4456C8.66218 12.4113 8.70223 12.3627 8.72596 12.3057C8.74969 12.2488 8.75603 12.1861 8.74418 12.1255C8.73233 12.065 8.70282 12.0093 8.65937 11.9655C8.63032 11.9362 8.59576 11.9129 8.55768 11.8971C8.5196 11.8812 8.47875 11.873 8.4375 11.873C8.39624 11.873 8.3554 11.8812 8.31732 11.8971C8.27924 11.9129 8.24468 11.9362 8.21562 11.9655Z" fill="#276955"/>
<path d="M3.75 11.25C3.92259 11.25 4.0625 11.1101 4.0625 10.9375C4.0625 10.7649 3.92259 10.625 3.75 10.625C3.57741 10.625 3.4375 10.7649 3.4375 10.9375C3.4375 11.1101 3.57741 11.25 3.75 11.25Z" fill="#276955"/>
<path d="M4.28437 9.90952C4.32782 9.86571 4.35733 9.81002 4.36918 9.74948C4.38103 9.68893 4.37469 9.62623 4.35097 9.56927C4.32724 9.51232 4.28718 9.46367 4.23585 9.42944C4.18451 9.39522 4.1242 9.37695 4.0625 9.37695C4.0008 9.37695 3.94048 9.39522 3.88915 9.42944C3.83782 9.46367 3.79776 9.51232 3.77403 9.56927C3.75031 9.62623 3.74397 9.68893 3.75582 9.74948C3.76767 9.81002 3.79718 9.86571 3.84062 9.90952C3.86968 9.93881 3.90424 9.96205 3.94232 9.97792C3.9804 9.99379 4.02125 10.002 4.0625 10.002C4.10375 10.002 4.1446 9.99379 4.18268 9.97792C4.22076 9.96205 4.25532 9.93881 4.28437 9.90952Z" fill="#276955"/>
<path d="M3.84062 11.9655C3.79718 12.0093 3.76767 12.065 3.75582 12.1255C3.74397 12.1861 3.75031 12.2488 3.77403 12.3057C3.79776 12.3627 3.83782 12.4113 3.88915 12.4456C3.94048 12.4798 4.0008 12.498 4.0625 12.498C4.1242 12.498 4.18451 12.4798 4.23585 12.4456C4.28718 12.4113 4.32724 12.3627 4.35097 12.3057C4.37469 12.2488 4.38103 12.1861 4.36918 12.1255C4.35733 12.065 4.32782 12.0093 4.28437 11.9655C4.25532 11.9362 4.22076 11.9129 4.18268 11.8971C4.1446 11.8812 4.10375 11.873 4.0625 11.873C4.02125 11.873 3.9804 11.8812 3.94232 11.8971C3.90424 11.9129 3.86968 11.9362 3.84062 11.9655Z" fill="#276955"/>
<path d="M6.25 8.75C6.42259 8.75 6.5625 8.61009 6.5625 8.4375C6.5625 8.26491 6.42259 8.125 6.25 8.125C6.07741 8.125 5.9375 8.26491 5.9375 8.4375C5.9375 8.61009 6.07741 8.75 6.25 8.75Z" fill="#276955"/>
<path d="M7.72187 8.97202C7.76532 8.92821 7.79483 8.87252 7.80668 8.81198C7.81853 8.75143 7.81219 8.68873 7.78846 8.63177C7.76473 8.57482 7.72468 8.52617 7.67335 8.49194C7.62201 8.45772 7.56169 8.43945 7.5 8.43945C7.4383 8.43945 7.37798 8.45772 7.32665 8.49194C7.27532 8.52617 7.23526 8.57482 7.21153 8.63177C7.18781 8.68873 7.18147 8.75143 7.19332 8.81198C7.20517 8.87252 7.23468 8.92821 7.27812 8.97202C7.30718 9.00131 7.34174 9.02455 7.37982 9.04042C7.4179 9.05629 7.45874 9.06445 7.5 9.06445C7.54125 9.06445 7.5821 9.05629 7.62018 9.04042C7.65826 9.02455 7.69282 9.00131 7.72187 8.97202Z" fill="#276955"/>
<path d="M5.22188 8.97202C5.26533 8.92821 5.29484 8.87252 5.30669 8.81198C5.31854 8.75143 5.3122 8.68873 5.28847 8.63177C5.26475 8.57482 5.22469 8.52617 5.17336 8.49194C5.12202 8.45772 5.0617 8.43945 5 8.43945C4.93831 8.43945 4.87799 8.45772 4.82665 8.49194C4.77532 8.52617 4.73526 8.57482 4.71153 8.63177C4.68781 8.68873 4.68147 8.75143 4.69332 8.81198C4.70517 8.87252 4.73468 8.92821 4.77813 8.97202C4.80718 9.00131 4.84174 9.02455 4.87982 9.04042C4.9179 9.05629 4.95875 9.06445 5 9.06445C5.04126 9.06445 5.0821 9.05629 5.12019 9.04042C5.15827 9.02455 5.19283 9.00131 5.22188 8.97202Z" fill="#276955"/>
<path d="M6.25 12.8125C6.62084 12.8125 6.98335 12.7025 7.29169 12.4965C7.60003 12.2905 7.84035 11.9976 7.98227 11.655C8.12418 11.3124 8.16131 10.9354 8.08897 10.5717C8.01662 10.208 7.83804 9.8739 7.57582 9.61167C7.3136 9.34945 6.9795 9.17088 6.61579 9.09853C6.25208 9.02618 5.87508 9.06331 5.53247 9.20523C5.18986 9.34714 4.89702 9.58746 4.69099 9.89581C4.48497 10.2041 4.375 10.5667 4.375 10.9375C4.375 11.4348 4.57254 11.9117 4.92417 12.2633C5.2758 12.615 5.75272 12.8125 6.25 12.8125ZM6.5625 9.73125C6.8273 9.80321 7.06106 9.96031 7.22772 10.1783C7.39439 10.3963 7.48468 10.6631 7.48468 10.9375C7.48468 11.2119 7.39439 11.4787 7.22772 11.6967C7.06106 11.9147 6.8273 12.0718 6.5625 12.1437V9.73125ZM5.9375 9.73125V12.1437C5.67269 12.0718 5.43893 11.9147 5.27227 11.6967C5.10561 11.4787 5.01531 11.2119 5.01531 10.9375C5.01531 10.6631 5.10561 10.3963 5.27227 10.1783C5.43893 9.96031 5.67269 9.80321 5.9375 9.73125Z" fill="#276955"/>
<path d="M17.8125 3.49375V0.625H17.1875V3.49375C17.0051 3.55822 16.8472 3.67752 16.7353 3.83529C16.6234 3.99306 16.563 4.18158 16.5625 4.375V5.56563C16.4706 5.62069 16.3938 5.69783 16.3393 5.79006C16.2847 5.88228 16.254 5.98667 16.25 6.09375C16.2543 6.20118 16.2851 6.30588 16.3396 6.39856C16.3942 6.49123 16.4707 6.56901 16.5625 6.625V8.4375C16.563 8.63092 16.6234 8.81944 16.7353 8.97721C16.8472 9.13498 17.0051 9.25428 17.1875 9.31875V18.2844C17.1867 18.4905 17.1044 18.6879 16.9587 18.8337C16.8129 18.9794 16.6155 19.0617 16.4094 19.0625H10.1594C10.0568 19.0629 9.95511 19.0431 9.86016 19.0042C9.76522 18.9653 9.67887 18.9081 9.60603 18.8359C9.53319 18.7636 9.4753 18.6777 9.43566 18.5831C9.39602 18.4885 9.37541 18.387 9.375 18.2844V17.8125H13.2844C13.6565 17.8125 14.0134 17.6647 14.2765 17.4015C14.5397 17.1384 14.6875 16.7815 14.6875 16.4094V9.31875C14.8699 9.25428 15.0278 9.13498 15.1397 8.97721C15.2516 8.81944 15.312 8.63092 15.3125 8.4375V6.62188C15.407 6.56978 15.4857 6.4933 15.5406 6.40041C15.5954 6.30752 15.6243 6.20162 15.6243 6.09375C15.6243 5.98588 15.5954 5.87998 15.5406 5.78709C15.4857 5.6942 15.407 5.61772 15.3125 5.56563V4.375C15.312 4.18158 15.2516 3.99306 15.1397 3.83529C15.0278 3.67752 14.8699 3.55822 14.6875 3.49375V0.625H14.0625V3.49375C13.8801 3.55822 13.7222 3.67752 13.6103 3.83529C13.4984 3.99306 13.438 4.18158 13.4375 4.375V5.56563C13.3456 5.62069 13.2688 5.69783 13.2143 5.79006C13.1597 5.88228 13.129 5.98667 13.125 6.09375C13.1293 6.20118 13.1601 6.30588 13.2146 6.39856C13.2692 6.49123 13.3457 6.56901 13.4375 6.625V8.4375C13.438 8.63092 13.4984 8.81944 13.6103 8.97721C13.7222 9.13498 13.8801 9.25428 14.0625 9.31875V16.4094C14.0617 16.6155 13.9794 16.8129 13.8337 16.9587C13.6879 17.1044 13.4905 17.1867 13.2844 17.1875H9.375V16.5625H9.6875C9.77038 16.5625 9.84987 16.5296 9.90847 16.471C9.96708 16.4124 10 16.3329 10 16.25V15.7531L10.2219 15.5344C10.2508 15.5052 10.2738 15.4705 10.2893 15.4325C10.3049 15.3944 10.3127 15.3536 10.3125 15.3125V14.6875H10.9375C11.0204 14.6875 11.0999 14.6546 11.1585 14.596C11.2171 14.5374 11.25 14.4579 11.25 14.375V0.9375C11.25 0.85462 11.2171 0.775134 11.1585 0.716529C11.0999 0.657924 11.0204 0.625 10.9375 0.625H1.5625C1.47962 0.625 1.40013 0.657924 1.34153 0.716529C1.28292 0.775134 1.25 0.85462 1.25 0.9375V14.375C1.25 14.4579 1.28292 14.5374 1.34153 14.596C1.40013 14.6546 1.47962 14.6875 1.5625 14.6875H2.1875V15.3125C2.18726 15.3536 2.19515 15.3944 2.2107 15.4325C2.22625 15.4705 2.24916 15.5052 2.27813 15.5344L2.5 15.7531V16.25C2.5 16.3329 2.53292 16.4124 2.59153 16.471C2.65013 16.5296 2.72962 16.5625 2.8125 16.5625H3.14062C3.17754 16.9051 3.3395 17.222 3.5955 17.4527C3.8515 17.6833 4.18356 17.8114 4.52812 17.8125H8.75V18.2844C8.75 18.4686 8.78629 18.6511 8.85681 18.8213C8.92732 18.9916 9.03067 19.1462 9.16097 19.2765C9.29126 19.4068 9.44594 19.5102 9.61617 19.5807C9.78641 19.6512 9.96886 19.6875 10.1531 19.6875H16.4031C16.5879 19.6883 16.771 19.6526 16.942 19.5825C17.113 19.5123 17.2684 19.4091 17.3993 19.2788C17.5303 19.1484 17.6342 18.9934 17.7051 18.8228C17.776 18.6521 17.8125 18.4692 17.8125 18.2844V9.31875C17.9949 9.25428 18.1528 9.13498 18.2647 8.97721C18.3766 8.81944 18.437 8.63092 18.4375 8.4375V6.62188C18.532 6.56978 18.6107 6.4933 18.6656 6.40041C18.7204 6.30752 18.7493 6.20162 18.7493 6.09375C18.7493 5.98588 18.7204 5.87998 18.6656 5.78709C18.6107 5.6942 18.532 5.61772 18.4375 5.56563V4.375C18.437 4.18158 18.3766 3.99306 18.2647 3.83529C18.1528 3.67752 17.9949 3.55822 17.8125 3.49375ZM14.6875 8.4375C14.6875 8.52038 14.6546 8.59987 14.596 8.65847C14.5374 8.71708 14.4579 8.75 14.375 8.75C14.2921 8.75 14.2126 8.71708 14.154 8.65847C14.0954 8.59987 14.0625 8.52038 14.0625 8.4375V6.85C14.2697 6.88127 14.4803 6.88127 14.6875 6.85V8.4375ZM13.875 6.15625C13.8385 6.13911 13.804 6.11816 13.7719 6.09375C13.804 6.06934 13.8385 6.04839 13.875 6.03125C13.9304 6.00707 13.9776 5.96733 14.0109 5.91686C14.0442 5.86638 14.0621 5.80733 14.0625 5.74688V4.375C14.0625 4.29212 14.0954 4.21263 14.154 4.15403C14.2126 4.09542 14.2921 4.0625 14.375 4.0625C14.4579 4.0625 14.5374 4.09542 14.596 4.15403C14.6546 4.21263 14.6875 4.29212 14.6875 4.375V5.74688C14.6879 5.80733 14.7058 5.86638 14.7391 5.91686C14.7724 5.96733 14.8196 6.00707 14.875 6.03125C14.9115 6.04839 14.946 6.06934 14.9781 6.09375C14.9465 6.11802 14.9119 6.13799 14.875 6.15313C14.5534 6.27695 14.1974 6.27806 13.875 6.15625ZM1.875 14.0625V1.25H10.625V14.0625H1.875ZM3.75 15.9375H3.125V15.625C3.12524 15.5839 3.11735 15.5431 3.1018 15.505C3.08625 15.467 3.06334 15.4323 3.03437 15.4031L2.8125 15.1844V14.6875H4.0625V15.1844L3.84063 15.4031C3.81166 15.4323 3.78875 15.467 3.7732 15.505C3.75765 15.5431 3.74976 15.5839 3.75 15.625V15.9375ZM8.75 17.1875H4.52812C4.3484 17.1874 4.17425 17.1251 4.03526 17.0112C3.89626 16.8972 3.80099 16.7387 3.76562 16.5625H4.0625C4.14538 16.5625 4.22487 16.5296 4.28347 16.471C4.34208 16.4124 4.375 16.3329 4.375 16.25V15.7531L4.59687 15.5344C4.62584 15.5052 4.64875 15.4705 4.6643 15.4325C4.67985 15.3944 4.68774 15.3536 4.6875 15.3125V14.6875H7.8125V15.3125C7.81226 15.3536 7.82015 15.3944 7.8357 15.4325C7.85125 15.4705 7.87416 15.5052 7.90313 15.5344L8.125 15.7531V16.25C8.125 16.3329 8.15792 16.4124 8.21653 16.471C8.27513 16.5296 8.35462 16.5625 8.4375 16.5625H8.75V17.1875ZM8.75 15.9375V15.625C8.75024 15.5839 8.74235 15.5431 8.7268 15.505C8.71125 15.467 8.68834 15.4323 8.65937 15.4031L8.4375 15.1844V14.6875H9.6875V15.1844L9.46563 15.4031C9.43666 15.4323 9.41375 15.467 9.3982 15.505C9.38264 15.5431 9.37476 15.5839 9.375 15.625V15.9375H8.75ZM17.8125 8.4375C17.8125 8.52038 17.7796 8.59987 17.721 8.65847C17.6624 8.71708 17.5829 8.75 17.5 8.75C17.4171 8.75 17.3376 8.71708 17.279 8.65847C17.2204 8.59987 17.1875 8.52038 17.1875 8.4375V6.85C17.3947 6.88127 17.6053 6.88127 17.8125 6.85V8.4375ZM18 6.15313C17.6789 6.27515 17.3242 6.27515 17.0031 6.15313C16.9666 6.13598 16.9321 6.11504 16.9 6.09063C16.9321 6.06622 16.9666 6.04527 17.0031 6.02813C17.0585 6.00394 17.1057 5.96421 17.139 5.91373C17.1723 5.86325 17.1902 5.80421 17.1906 5.74375V4.375C17.1906 4.29212 17.2235 4.21263 17.2822 4.15403C17.3408 4.09542 17.4202 4.0625 17.5031 4.0625C17.586 4.0625 17.6655 4.09542 17.7241 4.15403C17.7827 4.21263 17.8156 4.29212 17.8156 4.375V5.74688C17.816 5.80733 17.8339 5.86638 17.8672 5.91686C17.9005 5.96733 17.9477 6.00707 18.0031 6.03125C18.0396 6.04839 18.0742 6.06934 18.1062 6.09375C18.0737 6.11826 18.0379 6.13824 18 6.15313Z" fill="#276955"/>
</svg>
