<svg width="20" height="20" viewBox="0 0 20 20" fill="none" xmlns="http://www.w3.org/2000/svg">
<g clip-path="url(#clip0_2421_3803)">
<path d="M16.776 19.9995H1.26846C1.10664 19.9995 0.975514 19.8684 0.975514 19.7065V17.363C0.975514 17.2011 1.10664 17.07 1.26846 17.07H2.44025C2.60207 17.07 2.7332 17.2011 2.7332 17.363C2.7332 17.5248 2.60207 17.6559 2.44025 17.6559H1.56141V19.4136H3.31909V17.363C3.31909 17.2011 3.45021 17.07 3.61204 17.07H4.64305C3.45115 16.3989 2.42404 15.4665 1.63074 14.3272C0.563904 12.7951 0 10.995 0 9.12139C0 4.09239 4.09142 0.000976562 9.12042 0.000976562C10.8595 0.000976562 12.5507 0.492268 14.0111 1.42181C14.1476 1.50868 14.1878 1.68972 14.1009 1.82623C14.014 1.96267 13.833 2.00294 13.6965 1.91607C12.3303 1.04648 10.7479 0.58687 9.12046 0.58687C4.41452 0.58687 0.585933 4.41545 0.585933 9.12139C0.585933 12.6612 2.71296 15.779 6.00631 17.07H12.2345C15.479 15.7977 17.6549 12.6105 17.6549 9.12139C17.6549 6.59529 16.5449 4.2132 14.6094 2.5859C14.4855 2.48181 14.4696 2.29702 14.5737 2.1732C14.6778 2.04934 14.8626 2.03332 14.9864 2.1375C17.0547 3.87635 18.2408 6.42186 18.2408 9.12139C18.2408 11.0014 17.6734 12.8067 16.5998 14.3419C16.5941 14.3502 16.5883 14.3584 16.5825 14.3666L17.4832 15.3033L18.7469 14.0825L18.0506 13.3516C17.939 13.2345 17.9435 13.049 18.0606 12.9374C18.1778 12.8258 18.3632 12.8303 18.4748 12.9474L19.3718 13.889C20.0012 14.5405 20.1727 15.4652 19.818 16.301C19.8149 16.3083 18.8205 18.6505 18.8192 18.6534C18.4627 19.484 17.6806 19.9995 16.776 19.9995ZM15.6229 19.4136H16.776C16.9892 19.4136 17.1931 19.3747 17.3805 19.3018V17.6559H15.6229V19.4136ZM13.2793 19.4136H15.037V17.6559H13.2793V19.4136ZM10.9357 19.4136H12.6934V17.6559H10.9357V19.4136ZM8.59214 19.4136H10.3498V17.6559H8.59214V19.4136ZM6.24856 19.4136H8.00624V17.6559H6.24856V19.4136ZM3.90498 19.4136H5.66267V17.6559H3.90498V19.4136ZM17.9664 17.6478V18.9055C18.0969 18.7663 18.2047 18.6017 18.2835 18.4157C18.2847 18.413 18.6876 17.4643 18.6876 17.4643C18.464 17.5638 18.2212 17.6265 17.9664 17.6478ZM13.598 17.07H17.7712C17.9291 17.07 18.0819 17.0487 18.2267 17.008C18.1549 16.8756 18.0636 16.7518 17.9539 16.6382L16.2256 14.8407C15.495 15.7489 14.6054 16.5028 13.598 17.07ZM17.8892 15.7256L18.3757 16.2316C18.528 16.3893 18.6541 16.5626 18.7526 16.7491C18.9734 16.5839 19.1524 16.3604 19.2704 16.0912L19.2785 16.0721C19.2795 16.0697 19.2806 16.0673 19.2817 16.0649C19.5003 15.5433 19.4412 14.9756 19.1344 14.5228L17.8892 15.7256ZM9.12042 10.0002C8.63584 10.0002 8.24158 9.60596 8.24158 9.12139C8.24158 8.63682 8.63584 8.24255 9.12042 8.24255C9.60499 8.24255 9.99926 8.63682 9.99926 9.12139C9.99926 9.60596 9.60499 10.0002 9.12042 10.0002ZM9.12042 8.82844C8.95887 8.82844 8.82747 8.95984 8.82747 9.12139C8.82747 9.28294 8.95887 9.41434 9.12042 9.41434C9.28197 9.41434 9.41336 9.28294 9.41336 9.12139C9.41336 8.95984 9.28197 8.82844 9.12042 8.82844ZM9.12042 6.30343C8.13846 6.30343 7.19439 5.47506 6.83406 5.11891C6.30574 4.59673 5.6888 3.76085 5.6888 3.12383C5.6888 2.02977 7.19615 1.17276 9.12042 1.17276C11.0447 1.17276 12.552 2.02977 12.552 3.12383C12.552 3.76089 11.9351 4.59673 11.4068 5.11891C11.0464 5.47506 10.1024 6.30343 9.12042 6.30343ZM6.39839 3.55938C6.54846 3.88272 6.83367 4.29468 7.24595 4.70223C7.88918 5.33796 8.58991 5.71754 9.12042 5.71754C9.65092 5.71754 10.3517 5.33796 10.9949 4.70223C11.4072 4.29468 11.6923 3.8828 11.8424 3.55942C11.0006 3.1473 10.0644 2.93041 9.12042 2.93041C8.17658 2.93044 7.24005 3.14734 6.39839 3.55938ZM9.12042 2.34455C10.095 2.34455 11.0623 2.5559 11.9426 2.95869C11.866 2.68894 11.6058 2.42322 11.203 2.21042C10.6516 1.91908 9.91196 1.75866 9.12042 1.75866C8.32884 1.75866 7.58928 1.91908 7.03788 2.21038C6.63505 2.42314 6.37492 2.6889 6.29828 2.95861C7.17849 2.55594 8.14604 2.34455 9.12042 2.34455ZM2.35596 10.5317C1.31545 10.1937 0.966178 8.49522 1.56082 6.66513C2.15547 4.83503 3.43631 3.66629 4.47682 4.00435C5.08267 4.20121 5.687 5.04622 6.02037 5.71008C6.24774 6.16286 6.74384 7.31668 6.44042 8.25059H6.44038C6.24403 8.85504 5.71618 9.33419 5.308 9.62971C5.177 9.72459 4.99381 9.69525 4.89889 9.56421C4.80402 9.43316 4.83335 9.24997 4.9644 9.1551C5.44171 8.80954 5.76797 8.42406 5.88316 8.06955C6.04709 7.56502 5.90265 6.78125 5.49678 5.97307C5.2366 5.45502 4.93295 5.05654 4.67184 4.81386C4.01978 5.48713 3.52419 6.3105 3.23249 7.20829C2.94084 8.10592 2.85776 9.06366 2.9895 9.99148L2.99282 9.9907C3.26062 9.95812 3.60712 9.86727 4.00134 9.69783C4.15 9.63389 4.32226 9.70267 4.38616 9.85133C4.45006 9.99999 4.38132 10.1722 4.23265 10.2361C3.94982 10.3577 3.33237 10.5924 2.7844 10.5924C2.63352 10.5924 2.4879 10.5746 2.35596 10.5317ZM2.67527 7.02725C2.97642 6.10036 3.47634 5.24574 4.13141 4.53302C3.8512 4.52251 3.5181 4.68781 3.19121 5.00517C2.74378 5.43959 2.36264 6.09341 2.11805 6.84621C1.87345 7.59904 1.79748 8.35199 1.90416 8.96644C1.98204 9.41527 2.15441 9.74482 2.38724 9.90102C2.27624 8.93945 2.37416 7.95394 2.67527 7.02725ZM7.46406 11.4011C8.25845 11.9783 8.53534 13.2034 8.61753 13.7033C8.73802 14.4363 8.74584 15.4752 8.37137 15.9906C7.72829 16.8757 6.0051 16.683 4.4483 15.552C2.8915 14.4209 2.17578 12.8415 2.81885 11.9564C3.19332 11.4411 4.18371 11.1275 4.91807 11.0156C5.41897 10.9392 6.66966 10.824 7.46406 11.4011ZM8.05335 15.2211C8.12201 14.8713 8.13342 14.3704 8.0394 13.7983C7.8927 12.9059 7.54889 12.187 7.11971 11.8751C6.69052 11.5633 5.9005 11.4585 5.00643 11.5948C4.43334 11.6821 3.96049 11.8477 3.64903 12.0211C4.08782 12.8494 4.71778 13.5751 5.48151 14.13C6.24504 14.6847 7.13021 15.0597 8.05335 15.2211ZM5.13708 14.6039C4.34862 14.0311 3.69031 13.2916 3.21488 12.4483C3.11828 12.7115 3.17258 13.0794 3.37338 13.4884C3.64824 14.0482 4.15231 14.6127 4.79269 15.0779C5.43307 15.5432 6.12572 15.8481 6.74305 15.9366C7.194 16.0012 7.56065 15.9391 7.78118 15.766C6.83238 15.5744 5.92538 15.1767 5.13708 14.6039ZM10.7767 11.4011C11.5711 10.824 12.8218 10.9392 13.3227 11.0155C14.057 11.1274 15.0475 11.4411 15.4219 11.9564C16.065 12.8415 15.3493 14.4208 13.7925 15.5519C12.2357 16.683 10.5125 16.8757 9.86938 15.9905C9.49492 15.4751 9.50277 14.4363 9.62323 13.7033C9.70549 13.2034 9.98235 11.9783 10.7767 11.4011ZM14.5918 12.0211C14.2804 11.8477 13.8075 11.6821 13.2344 11.5948C12.3403 11.4585 11.5503 11.5633 11.1211 11.8751C10.6919 12.1869 10.3481 12.9059 10.2014 13.7983C10.1074 14.3704 10.1188 14.8713 10.1874 15.2211C11.1107 15.0597 11.9956 14.6848 12.7593 14.13C13.5229 13.5752 14.1531 12.8492 14.5918 12.0211ZM13.1038 14.6039C12.3153 15.1768 11.4085 15.5743 10.4596 15.7659C10.6801 15.9392 11.0468 16.0012 11.4978 15.9366C12.1151 15.8482 12.8078 15.5432 13.4481 15.0779C14.0885 14.6127 14.5926 14.0482 14.8675 13.4884C15.0683 13.0795 15.1225 12.7115 15.026 12.4483C14.5505 13.2915 13.8921 14.0312 13.1038 14.6039ZM11.8005 8.25059C11.497 7.31672 11.9931 6.16286 12.2205 5.71008C12.5539 5.04622 13.1582 4.20121 13.764 4.00435C14.8045 3.66625 16.0854 4.83499 16.68 6.66513C17.2747 8.49526 16.9254 10.1937 15.8849 10.5317C15.2791 10.7286 14.2935 10.4001 13.6336 10.059C13.1834 9.82633 12.1039 9.18447 11.8005 8.25059ZM13.569 4.81382C13.3079 5.05646 13.0042 5.45498 12.7441 5.97307C12.3382 6.78125 12.1937 7.56502 12.3577 8.06955C12.5216 8.57409 13.0991 9.12326 13.9026 9.53854C14.4176 9.80474 14.8974 9.94863 15.2513 9.99148C15.3832 9.06354 15.3001 8.10607 15.0084 7.20829C14.7167 6.31062 14.221 5.48697 13.569 4.81382ZM15.5656 7.02721C15.8667 7.95409 15.9646 8.93933 15.8536 9.90098C16.0865 9.74478 16.2588 9.41527 16.3367 8.96636C16.4433 8.35191 16.3673 7.59892 16.1227 6.84613C15.8782 6.09329 15.497 5.43952 15.0496 5.0051C14.7228 4.68777 14.3896 4.52247 14.1094 4.53294C14.7645 5.24566 15.2645 6.10052 15.5656 7.02721Z" fill="#276955"/>
</g>
<defs>
<clipPath id="clip0_2421_3803">
<rect width="20" height="20" fill="white"/>
</clipPath>
</defs>
</svg>
