<svg width="20" height="20" viewBox="0 0 20 20" fill="none" xmlns="http://www.w3.org/2000/svg">
<g clip-path="url(#clip0_2421_3610)">
<path d="M13.8453 19.5703H8.25828C8.09649 19.5703 7.96531 19.4392 7.96531 19.2773C7.96531 19.1155 8.09649 18.9844 8.25828 18.9844H13.8453C14.7254 18.9844 15.4413 18.2684 15.4413 17.3883C15.4413 2.19168 15.4389 2.5225 15.4389 2.5225C15.3925 1.67758 14.6924 1.0157 13.8452 1.01566H6.15465C5.27457 1.01566 4.55859 1.73164 4.55859 2.61172V17.3883C4.55859 18.2684 5.27461 18.9844 6.15465 18.9844H6.8911C7.05289 18.9844 7.18406 19.1155 7.18406 19.2773C7.18406 19.4392 7.05289 19.5703 6.8911 19.5703H6.15465C4.95148 19.5703 3.97266 18.5914 3.97266 17.3883V2.61168C3.97266 1.40855 4.95148 0.429688 6.15465 0.429688H13.8453C15.0031 0.429727 15.9599 1.3343 16.0239 2.48926C16.0239 2.48961 16.0239 2.48996 16.0239 2.49023C16.029 2.58184 16.0272 1.74559 16.0272 17.3883C16.0273 18.5914 15.0484 19.5703 13.8453 19.5703Z" fill="#276955"/>
<path d="M10.0001 17.3732C7.85283 17.3732 6.10596 15.6263 6.10596 13.4791C6.10596 11.3319 7.85287 9.58496 10.0001 9.58496C12.1473 9.58496 13.8942 11.3319 13.8942 13.4791C13.8942 15.6263 12.1474 17.3732 10.0001 17.3732ZM10.0001 10.1709C8.17596 10.1709 6.69189 11.6549 6.69189 13.4791C6.69189 15.3032 8.17596 16.7873 10.0001 16.7873C11.8242 16.7873 13.3083 15.3032 13.3083 13.4791C13.3083 11.6549 11.8242 10.1709 10.0001 10.1709Z" fill="#276955"/>
<path d="M9.99991 16.2757C8.45761 16.2757 7.20288 15.0209 7.20288 13.4787C7.20288 11.9364 8.45765 10.6816 9.99991 10.6816C11.5422 10.6816 12.7969 11.9364 12.7969 13.4787C12.7969 15.0209 11.5422 16.2757 9.99991 16.2757ZM9.99991 11.2675C8.78069 11.2675 7.78882 12.2595 7.78882 13.4786C7.78882 14.6978 8.78073 15.6897 9.99991 15.6897C11.2191 15.6897 12.211 14.6978 12.211 13.4786C12.211 12.2595 11.2191 11.2675 9.99991 11.2675Z" fill="#276955"/>
<path d="M9.99988 14.5515C9.40871 14.5515 8.92773 14.0705 8.92773 13.4793C8.92773 12.8882 9.40871 12.4072 9.99988 12.4072C10.5911 12.4072 11.072 12.8882 11.072 13.4793C11.072 14.0705 10.5911 14.5515 9.99988 14.5515ZM9.99988 12.9931C9.7318 12.9931 9.51367 13.2112 9.51367 13.4793C9.51367 13.7474 9.7318 13.9655 9.99988 13.9655C10.268 13.9655 10.4861 13.7474 10.4861 13.4793C10.4861 13.2112 10.268 12.9931 9.99988 12.9931Z" fill="#276955"/>
<path d="M10 8.23777C8.4531 8.23777 7.19458 6.97925 7.19458 5.43234C7.19458 3.88543 8.4531 2.62695 10 2.62695C11.0134 2.62691 11.9513 3.17633 12.4479 4.0609C12.527 4.20195 12.4769 4.38058 12.3358 4.45976C12.1946 4.5389 12.0161 4.48875 11.9369 4.34769C11.544 3.64766 10.8018 3.21281 10 3.21285C8.77614 3.21285 7.78052 4.20847 7.78052 5.4323C7.78052 6.65613 8.77618 7.65183 10 7.65183C11.2045 7.65183 12.1789 6.70949 12.2183 5.50652C12.2236 5.34476 12.3579 5.218 12.5207 5.22328C12.6824 5.22859 12.8092 5.36398 12.8039 5.5257C12.78 6.25535 12.4777 6.93753 11.9527 7.44656C11.4266 7.95675 10.7331 8.23777 10 8.23777Z" fill="#276955"/>
<path d="M10.0001 6.56262C9.37674 6.56262 8.86963 6.05551 8.86963 5.43219C8.86963 4.80887 9.37674 4.30176 10.0001 4.30176C10.6234 4.30176 11.1305 4.80887 11.1305 5.43219C11.1305 6.05551 10.6234 6.56262 10.0001 6.56262ZM10.0001 4.88766C9.69982 4.88766 9.45557 5.13191 9.45557 5.43215C9.45557 5.73238 9.69982 5.97664 10.0001 5.97664C10.3003 5.97664 10.5446 5.73238 10.5446 5.43215C10.5446 5.13191 10.3003 4.88766 10.0001 4.88766Z" fill="#276955"/>
<path d="M16.5563 15.3467C16.4341 15.2407 16.421 15.0557 16.527 14.9335C16.8779 14.5289 17.0711 14.0122 17.0711 13.4787C17.0711 12.9452 16.8779 12.4286 16.527 12.024C16.421 11.9017 16.4341 11.7167 16.5563 11.6107C16.6786 11.5047 16.8636 11.5178 16.9696 11.6401C17.4129 12.1512 17.6571 12.8042 17.6571 13.4787C17.6571 14.1532 17.4129 14.8062 16.9696 15.3174C16.8637 15.4395 16.6787 15.4528 16.5563 15.3467Z" fill="#276955"/>
<path d="M18.3271 16.8808C18.2049 16.7748 18.1917 16.5898 18.2977 16.4675C19.0176 15.6375 19.4141 14.5762 19.4141 13.4791C19.4141 12.3821 19.0176 11.3208 18.2977 10.4908C18.1917 10.3685 18.2049 10.1835 18.3271 10.0775C18.4493 9.97151 18.6344 9.98464 18.7404 10.1069C19.5527 11.0434 20 12.241 20 13.4791C20 14.7172 19.5527 15.9148 18.7404 16.8514C18.6344 16.9736 18.4494 16.9869 18.3271 16.8808Z" fill="#276955"/>
<path d="M17.4411 16.1139C17.3189 16.0078 17.3057 15.8228 17.4117 15.7006C17.9474 15.0829 18.2425 14.294 18.2425 13.4794C18.2425 12.6649 17.9475 11.876 17.4117 11.2584C17.3057 11.1361 17.3189 10.9511 17.4411 10.8451C17.5634 10.7391 17.7484 10.7523 17.8544 10.8744C18.4825 11.5987 18.8284 12.5239 18.8284 13.4794C18.8284 14.4351 18.4826 15.3602 17.8544 16.0845C17.7485 16.2066 17.5635 16.2199 17.4411 16.1139Z" fill="#276955"/>
<path d="M3.03023 15.3174C2.58691 14.8062 2.34277 14.1532 2.34277 13.4787C2.34277 12.8042 2.58691 12.1512 3.03023 11.6401C3.13621 11.5178 3.32125 11.5047 3.44351 11.6107C3.56574 11.7167 3.5789 11.9017 3.47289 12.024C3.12199 12.4286 2.92871 12.9452 2.92871 13.4787C2.92871 14.0122 3.12195 14.5289 3.47289 14.9335C3.5789 15.0557 3.56574 15.2407 3.44351 15.3467C3.32117 15.4528 3.13617 15.4395 3.03023 15.3174Z" fill="#276955"/>
<path d="M1.25961 16.8514C0.447344 15.9148 0 14.7172 0 13.4791C0 12.2411 0.447344 11.0434 1.25961 10.1069C1.36559 9.98464 1.55062 9.97151 1.67289 10.0775C1.79512 10.1835 1.80828 10.3685 1.70227 10.4908C0.982383 11.3208 0.585938 12.3821 0.585938 13.4791C0.585938 14.5762 0.982383 15.6375 1.70227 16.4675C1.80828 16.5898 1.79512 16.7748 1.67289 16.8808C1.5507 16.9867 1.3657 16.9737 1.25961 16.8514Z" fill="#276955"/>
<path d="M2.14545 16.0845C1.51732 15.3602 1.17139 14.435 1.17139 13.4794C1.17139 12.5239 1.51729 11.5987 2.14545 10.8744C2.25143 10.7523 2.43647 10.7391 2.55873 10.8451C2.68096 10.9511 2.69412 11.1361 2.58811 11.2584C2.0524 11.876 1.75732 12.6649 1.75732 13.4794C1.75732 14.294 2.05236 15.0829 2.58811 15.7006C2.69412 15.8228 2.68096 16.0078 2.55873 16.1139C2.43639 16.2199 2.25139 16.2066 2.14545 16.0845Z" fill="#276955"/>
<path d="M16.5511 6.94403C16.4359 6.8304 16.4346 6.64493 16.5483 6.52973C16.8513 6.22255 17.0181 5.83274 17.0181 5.43219C17.0181 5.03169 16.8512 4.64192 16.5483 4.33466C16.4346 4.21946 16.436 4.03395 16.5512 3.92036C16.6663 3.80669 16.8519 3.80798 16.9655 3.92321C17.3773 4.34079 17.6041 4.87669 17.6041 5.43219C17.6041 5.98774 17.3773 6.5236 16.9655 6.94118C16.8518 7.05634 16.6663 7.05762 16.5511 6.94403Z" fill="#276955"/>
<path d="M18.1449 8.15768C18.0297 8.04409 18.0284 7.85858 18.142 7.74338C18.777 7.09948 19.1268 6.27862 19.1268 5.43205C19.1268 4.58553 18.777 3.76467 18.142 3.12076C18.0284 3.00556 18.0297 2.82006 18.1449 2.70646C18.2601 2.59283 18.4456 2.59412 18.5592 2.70931C19.303 3.46361 19.7127 4.43053 19.7127 5.43205C19.7127 6.43362 19.3031 7.40057 18.5592 8.15483C18.4455 8.27002 18.2601 8.27127 18.1449 8.15768Z" fill="#276955"/>
<path d="M17.3475 7.55059C17.2323 7.437 17.231 7.25149 17.3446 7.1363C17.814 6.66044 18.0724 6.05525 18.0724 5.43224C18.0724 4.80923 17.8139 4.20404 17.3446 3.72818C17.231 3.61298 17.2323 3.42748 17.3475 3.31388C17.4627 3.20025 17.6482 3.20154 17.7618 3.31674C18.34 3.90295 18.6584 4.65423 18.6584 5.43224C18.6584 6.21025 18.34 6.96153 17.7618 7.54774C17.6482 7.66294 17.4627 7.66419 17.3475 7.55059Z" fill="#276955"/>
<path d="M3.04244 6.94115C2.63065 6.52361 2.40381 5.98771 2.40381 5.43217C2.40381 4.87666 2.63061 4.3408 3.04244 3.92318C3.15604 3.80802 3.34151 3.80666 3.45674 3.92033C3.57194 4.03392 3.57323 4.21943 3.45963 4.33463C3.15666 4.64185 2.98979 5.03166 2.98979 5.43217C2.98979 5.83271 3.15662 6.22248 3.45963 6.52971C3.57327 6.6449 3.57198 6.83037 3.45678 6.944C3.34151 7.05763 3.15604 7.05635 3.04244 6.94115Z" fill="#276955"/>
<path d="M1.44872 8.15482C0.704853 7.40053 0.295166 6.43361 0.295166 5.43205C0.295166 4.43053 0.704814 3.46357 1.44872 2.70931C1.56231 2.59416 1.74778 2.59279 1.86302 2.70646C1.97821 2.82006 1.9795 3.00556 1.86587 3.12076C1.23083 3.76467 0.881103 4.58553 0.881103 5.43205C0.881103 6.27861 1.23083 7.09947 1.86587 7.74338C1.9795 7.85857 1.97817 8.04408 1.86302 8.15767C1.74782 8.27135 1.56227 8.26994 1.44872 8.15482Z" fill="#276955"/>
<path d="M2.24617 7.54774C1.66801 6.96153 1.34961 6.21025 1.34961 5.43224C1.34961 4.65423 1.66801 3.90295 2.24617 3.31674C2.35973 3.20158 2.54524 3.20021 2.66047 3.31388C2.77567 3.42748 2.77696 3.61299 2.66332 3.72818C2.19399 4.20404 1.93555 4.80923 1.93555 5.43224C1.93555 6.05525 2.19403 6.66044 2.66332 7.1363C2.77696 7.25149 2.77567 7.437 2.66047 7.5506C2.54532 7.66419 2.35977 7.66294 2.24617 7.54774Z" fill="#276955"/>
</g>
<defs>
<clipPath id="clip0_2421_3610">
<rect width="20" height="20" fill="white"/>
</clipPath>
</defs>
</svg>
