<svg width="20" height="20" viewBox="0 0 20 20" fill="none" xmlns="http://www.w3.org/2000/svg">
<path d="M13.9785 2.45996C13.8166 2.45996 13.6855 2.59119 13.6855 2.75293V4.10059C13.6855 4.26233 13.8166 4.39356 13.9785 4.39356C14.1403 4.39356 14.2715 4.26233 14.2715 4.10059V2.75293C14.2715 2.59119 14.1403 2.45996 13.9785 2.45996Z" fill="#276955"/>
<path d="M16.3406 2.45996C16.1787 2.45996 16.0476 2.59119 16.0476 2.75293V4.10059C16.0476 4.26233 16.1787 4.39356 16.3406 4.39356C16.5025 4.39356 16.6335 4.26233 16.6335 4.10059V2.75293C16.6335 2.59119 16.5025 2.45996 16.3406 2.45996Z" fill="#276955"/>
<path d="M13.5876 12.1426H15.1892C15.351 12.1426 15.4822 12.0114 15.4822 11.8496C15.4822 11.6879 15.351 11.5566 15.1892 11.5566H13.5876C13.4258 11.5566 13.2947 11.6879 13.2947 11.8496C13.2947 12.0114 13.4258 12.1426 13.5876 12.1426Z" fill="#276955"/>
<path d="M15.1892 16.1787H13.5876C13.4258 16.1787 13.2947 16.3099 13.2947 16.4717C13.2947 16.6336 13.4258 16.7646 13.5876 16.7646H15.1892C15.351 16.7646 15.4822 16.6336 15.4822 16.4717C15.4822 16.3099 15.351 16.1787 15.1892 16.1787Z" fill="#276955"/>
<path d="M19.394 9.18542H17.4283C17.2664 9.18542 17.1353 9.31649 17.1353 9.47839C17.1353 9.64013 17.2664 9.77135 17.4283 9.77135H19.394C19.405 9.77135 19.414 9.7802 19.414 9.79134V10.4989C19.414 10.51 19.405 10.519 19.394 10.519H0.605925C0.594939 10.519 0.585936 10.51 0.585936 10.4989V9.79134C0.585936 9.78036 0.594939 9.77135 0.605925 9.77135H16.2564C16.4183 9.77135 16.5493 9.64013 16.5493 9.47839C16.5493 9.31649 16.4183 9.18542 16.2564 9.18542H6.8463V8.69149C7.19451 8.677 7.47313 8.38922 7.47313 8.0375V7.63086C7.47313 7.46912 7.34206 7.33789 7.18016 7.33789C7.01842 7.33789 6.8872 7.46912 6.8872 7.63086V8.0375C6.8872 8.07535 6.85653 8.10617 6.81868 8.10617H2.4208C2.38296 8.10617 2.35214 8.07535 2.35214 8.0375V7.63086C2.35214 7.46912 2.22107 7.33789 2.05917 7.33789C1.89743 7.33789 1.7662 7.46912 1.7662 7.63086V8.0375C1.7662 8.38922 2.04498 8.677 2.39318 8.69149V9.18542H0.605925C0.271911 9.18542 0 9.45718 0 9.79134V10.4989C0 10.8331 0.271911 11.105 0.605925 11.105H0.930327V19.1276C0.930327 19.5951 1.31058 19.9753 1.7781 19.9753H18.2219C18.6894 19.9753 19.0696 19.5951 19.0696 19.1276V11.105H19.394C19.7281 11.105 20 10.8331 20 10.4989V9.79134C20 9.45718 19.7281 9.18542 19.394 9.18542V9.18542ZM2.97912 8.6921H6.26037V9.18542H2.97912V8.6921ZM1.51626 19.1276V11.105H9.70701V19.3894H1.7781C1.6336 19.3894 1.51626 19.2721 1.51626 19.1276ZM18.2219 19.3894H10.293V15.5634H18.4839V19.1276C18.4839 19.2721 18.3664 19.3894 18.2219 19.3894V19.3894ZM18.4839 14.9775H10.293V11.105H18.4839V14.9775Z" fill="#276955"/>
<path d="M8.6117 13.9307H2.71631C2.41876 13.9307 2.17676 14.1727 2.17676 14.4702V18.2529C2.17676 18.5504 2.41876 18.7924 2.71631 18.7924H8.6117C8.90924 18.7924 9.15125 18.5504 9.15125 18.2529V14.4702C9.15125 14.1727 8.90924 13.9307 8.6117 13.9307ZM8.56531 18.2065H2.7627V14.5168H8.56531V18.2065Z" fill="#276955"/>
<path d="M3.13379 13.4707C3.66159 13.4707 4.09082 13.0413 4.09082 12.5137C4.09082 11.986 3.66159 11.5566 3.13379 11.5566C2.60614 11.5566 2.17676 11.986 2.17676 12.5137C2.17676 13.0413 2.60614 13.4707 3.13379 13.4707ZM3.13379 12.1426C3.33841 12.1426 3.50488 12.3091 3.50488 12.5137C3.50488 12.7183 3.33841 12.8848 3.13379 12.8848C2.92917 12.8848 2.7627 12.7183 2.7627 12.5137C2.7627 12.3091 2.92917 12.1426 3.13379 12.1426Z" fill="#276955"/>
<path d="M5.66407 13.4707C6.19172 13.4707 6.6211 13.0413 6.6211 12.5137C6.6211 11.986 6.19172 11.5566 5.66407 11.5566C5.13642 11.5566 4.70703 11.986 4.70703 12.5137C4.70703 13.0413 5.13642 13.4707 5.66407 13.4707ZM5.66407 12.1426C5.86869 12.1426 6.03516 12.3091 6.03516 12.5137C6.03516 12.7183 5.86869 12.8848 5.66407 12.8848C5.45944 12.8848 5.29297 12.7183 5.29297 12.5137C5.29297 12.3091 5.45944 12.1426 5.66407 12.1426Z" fill="#276955"/>
<path d="M19.2003 0H11.1188C10.6778 0 10.3191 0.358734 10.3191 0.799713V6.00983C10.3191 6.45081 10.6778 6.80969 11.1188 6.80969H19.2003C19.6413 6.80969 20 6.45081 20 6.00983V0.799713C20 0.358734 19.6413 0 19.2003 0V0ZM10.905 6.00983V0.799713C10.905 0.681915 11.0009 0.585937 11.1188 0.585937H14.8665V6.22375H11.1188C11.0009 6.22375 10.905 6.12778 10.905 6.00983ZM19.4141 6.00983C19.4141 6.12778 19.3183 6.22375 19.2003 6.22375H15.4525V0.585937H19.2003C19.3183 0.585937 19.4141 0.681915 19.4141 0.799713V6.00983Z" fill="#276955"/>
<path d="M0.584107 3.69763H9.00681C9.32892 3.69763 9.59107 3.43564 9.59107 3.11337V2.58862C9.59107 2.26651 9.32907 2.00452 9.00681 2.00452H8.56186C8.45993 1.35754 7.89856 0.861328 7.22351 0.861328H2.36755C1.69251 0.861328 1.13113 1.35754 1.02921 2.00452H0.584107C0.261994 2.00452 0 2.26651 0 2.58862V3.11353C0 3.43564 0.261994 3.69763 0.584107 3.69763ZM2.5293 2.59046C2.69104 2.59046 2.82227 2.45923 2.82227 2.29749C2.82227 2.13574 2.69104 2.00452 2.5293 2.00452H1.62827C1.72043 1.68317 2.01706 1.44727 2.36755 1.44727H7.22351C7.57401 1.44727 7.87064 1.68317 7.9628 2.00452H3.71979C3.55805 2.00452 3.42682 2.13574 3.42682 2.29749C3.42682 2.45923 3.55805 2.59046 3.71979 2.59046L8.25547 2.58893C8.26523 2.59 8.2753 2.59046 8.28537 2.59046C8.2956 2.59046 8.30567 2.59 8.31574 2.58893L9.00513 2.58878L9.00681 3.1117L0.585938 3.11353L0.584107 2.59046H2.5293Z" fill="#276955"/>
</svg>
