<svg width="20" height="20" viewBox="0 0 20 20" fill="none" xmlns="http://www.w3.org/2000/svg">
<path d="M8.79719 12.4282L9.13433 12.5679L9.34284 13.4375H10.6572L10.8657 12.5679L11.2028 12.4282L11.9678 12.897L12.897 11.9678L12.4282 11.2028L12.5679 10.8657L13.4375 10.6572V9.34284L12.5679 9.13433L12.4282 8.79723L12.897 8.03223L11.9678 7.10304L11.2028 7.57179L10.8657 7.43206L10.6572 6.5625H9.34284L9.13433 7.43206L8.79723 7.57179L8.03223 7.103L7.10304 8.03223L7.57179 8.79719L7.43206 9.13433L6.5625 9.34284V10.6572L7.43206 10.8657L7.57179 11.2028L7.103 11.9678L8.03223 12.897L8.79719 12.4282ZM7.88754 10.3321L7.1875 10.1643V9.8357L7.88754 9.66786L8.2711 8.74222L7.89337 8.12576L8.12576 7.89334L8.74222 8.2711L9.66785 7.88754L9.8357 7.1875H10.1643L10.3321 7.88754L11.2578 8.2711L11.8742 7.89337L12.1067 8.12576L11.7289 8.74222L12.1125 9.66785L12.8125 9.8357V10.1643L12.1125 10.3321L11.7289 11.2578L12.1066 11.8742L11.8742 12.1067L11.2578 11.7289L10.3321 12.1125L10.1643 12.8125H9.8357L9.66786 12.1125L8.74222 11.7289L8.12576 12.1066L7.89334 11.8742L8.2711 11.2578L7.88754 10.3321Z" fill="#276955"/>
<path d="M10 11.25C10.2472 11.25 10.4889 11.1767 10.6945 11.0393C10.9 10.902 11.0603 10.7068 11.1549 10.4784C11.2495 10.2499 11.2742 9.99861 11.226 9.75614C11.1778 9.51366 11.0587 9.29093 10.8839 9.11612C10.7091 8.9413 10.4863 8.82225 10.2439 8.77402C10.0014 8.72579 9.75006 8.75054 9.52165 8.84515C9.29324 8.93976 9.09802 9.09998 8.96066 9.30554C8.82331 9.5111 8.75 9.75277 8.75 10C8.75038 10.3314 8.8822 10.6491 9.11654 10.8835C9.35088 11.1178 9.6686 11.2496 10 11.25ZM10 9.375C10.1236 9.375 10.2445 9.41166 10.3472 9.48033C10.45 9.54901 10.5301 9.64662 10.5774 9.76082C10.6247 9.87503 10.6371 10.0007 10.613 10.1219C10.5889 10.2432 10.5294 10.3545 10.442 10.4419C10.3545 10.5294 10.2432 10.5889 10.1219 10.613C10.0007 10.6371 9.87503 10.6247 9.76083 10.5774C9.64662 10.5301 9.54901 10.45 9.48034 10.3472C9.41166 10.2445 9.375 10.1236 9.375 10C9.37519 9.8343 9.4411 9.67544 9.55827 9.55827C9.67544 9.4411 9.8343 9.37519 10 9.375Z" fill="#276955"/>
<path d="M17.5 13.5682L15 12.1396L12.5 13.5682V17.1871H17.5V13.5682ZM15.625 15.3121H14.375V14.6871H15.625V15.3121ZM14.375 15.9371H15.625V16.5621H14.375V15.9371ZM16.875 16.5621H16.25V14.0621H13.75V16.5621H13.125V13.9309L15 12.8595L16.875 13.9309V16.5621Z" fill="#276955"/>
<path d="M5 9.375H5.9375V8.75H5C4.25832 8.75 3.5333 8.53006 2.91661 8.11801C2.29993 7.70595 1.81928 7.12028 1.53545 6.43506C1.25162 5.74984 1.17736 4.99584 1.32206 4.26841C1.46675 3.54098 1.8239 2.8728 2.34835 2.34835C2.8728 1.8239 3.54098 1.46675 4.26841 1.32206C4.99584 1.17736 5.74984 1.25162 6.43506 1.53545C7.12028 1.81928 7.70595 2.29993 8.11801 2.91661C8.53006 3.5333 8.75 4.25832 8.75 5V5.9375H9.375V5C9.375 4.13471 9.11841 3.28885 8.63768 2.56938C8.15695 1.84992 7.47366 1.28916 6.67424 0.958029C5.87481 0.626896 4.99515 0.540256 4.14648 0.709066C3.29781 0.877877 2.51826 1.29455 1.90641 1.90641C1.29455 2.51826 0.877877 3.29781 0.709066 4.14648C0.540256 4.99515 0.626896 5.87481 0.958029 6.67424C1.28916 7.47366 1.84992 8.15695 2.56938 8.63768C3.28885 9.11841 4.13471 9.375 5 9.375Z" fill="#276955"/>
<path d="M11.25 5C11.25 4.25832 11.4699 3.5333 11.882 2.91661C12.294 2.29993 12.8797 1.81928 13.5649 1.53545C14.2502 1.25162 15.0042 1.17736 15.7316 1.32206C16.459 1.46675 17.1272 1.8239 17.6517 2.34835C18.1761 2.8728 18.5332 3.54098 18.6779 4.26841C18.8226 4.99584 18.7484 5.74984 18.4645 6.43506C18.1807 7.12028 17.7001 7.70595 17.0834 8.11801C16.4667 8.53006 15.7417 8.75 15 8.75H14.0625V9.375H15C15.8653 9.375 16.7112 9.11841 17.4306 8.63768C18.1501 8.15695 18.7108 7.47366 19.042 6.67424C19.3731 5.87481 19.4597 4.99515 19.2909 4.14648C19.1221 3.29781 18.7054 2.51826 18.0936 1.90641C17.4817 1.29455 16.7022 0.877877 15.8535 0.709066C15.0049 0.540256 14.1252 0.626896 13.3258 0.958029C12.5263 1.28916 11.8431 1.84992 11.3623 2.56938C10.8816 3.28885 10.625 4.13471 10.625 5V5.9375H11.25V5Z" fill="#276955"/>
<path d="M8.75 15C8.75 15.7417 8.53006 16.4667 8.11801 17.0834C7.70595 17.7001 7.12028 18.1807 6.43506 18.4645C5.74984 18.7484 4.99584 18.8226 4.26841 18.6779C3.54098 18.5332 2.8728 18.1761 2.34835 17.6517C1.8239 17.1272 1.46675 16.459 1.32206 15.7316C1.17736 15.0042 1.25162 14.2502 1.53545 13.5649C1.81928 12.8797 2.29993 12.294 2.91661 11.882C3.5333 11.4699 4.25832 11.25 5 11.25H5.9375V10.625H5C4.13471 10.625 3.28885 10.8816 2.56938 11.3623C1.84992 11.8431 1.28916 12.5263 0.958029 13.3258C0.626896 14.1252 0.540256 15.0049 0.709066 15.8535C0.877877 16.7022 1.29455 17.4817 1.90641 18.0936C2.51826 18.7054 3.29781 19.1221 4.14648 19.2909C4.99515 19.4597 5.87481 19.3731 6.67424 19.042C7.47366 18.7108 8.15695 18.1501 8.63768 17.4306C9.11841 16.7112 9.375 15.8653 9.375 15V14.0625H8.75V15Z" fill="#276955"/>
<path d="M15 10.625H14.0625V11.25H15C15.7417 11.25 16.4667 11.4699 17.0834 11.882C17.7001 12.294 18.1807 12.8797 18.4645 13.5649C18.7484 14.2502 18.8226 15.0042 18.6779 15.7316C18.5332 16.459 18.1761 17.1272 17.6517 17.6517C17.1272 18.1761 16.459 18.5332 15.7316 18.6779C15.0042 18.8226 14.2502 18.7484 13.5649 18.4645C12.8797 18.1807 12.294 17.7001 11.882 17.0834C11.4699 16.4667 11.25 15.7417 11.25 15V14.0625H10.625V15C10.625 15.8653 10.8816 16.7112 11.3623 17.4306C11.8431 18.1501 12.5263 18.7108 13.3258 19.042C14.1252 19.3731 15.0049 19.4597 15.8535 19.2909C16.7022 19.1221 17.4817 18.7054 18.0936 18.0936C18.7054 17.4817 19.1221 16.7022 19.2909 15.8535C19.4597 15.0049 19.3731 14.1252 19.042 13.3258C18.7108 12.5263 18.1501 11.8431 17.4306 11.3623C16.7112 10.8816 15.8653 10.625 15 10.625Z" fill="#276955"/>
<path d="M2.8125 15.625V16.875C2.81278 17.1236 2.91165 17.3618 3.0874 17.5376C3.26316 17.7134 3.50145 17.8122 3.75 17.8125H6.25C6.49855 17.8122 6.73684 17.7134 6.9126 17.5376C7.08835 17.3618 7.18721 17.1236 7.1875 16.875V15.625C7.18715 15.4795 7.15311 15.3361 7.08804 15.206C7.02298 15.0758 6.92866 14.9626 6.81248 14.875L5.9927 14.2601L6.18587 13.6806C6.22837 13.5532 6.25003 13.4197 6.25 13.2854V13.125C6.25 12.7935 6.1183 12.4755 5.88388 12.2411C5.64946 12.0067 5.33152 11.875 5 11.875C4.66848 11.875 4.35054 12.0067 4.11612 12.2411C3.8817 12.4755 3.75 12.7935 3.75 13.125V13.2854C3.74997 13.4197 3.77163 13.5532 3.81412 13.6807L4.0073 14.2601L3.18752 14.875C3.07134 14.9626 2.97701 15.0758 2.91194 15.206C2.84688 15.3361 2.81284 15.4795 2.8125 15.625ZM3.4375 15.625C3.43762 15.5765 3.44896 15.5287 3.47065 15.4853C3.49234 15.442 3.52378 15.4042 3.56251 15.375L4.7427 14.4899L4.40708 13.483C4.38582 13.4193 4.37498 13.3526 4.375 13.2854V13.125C4.375 12.9592 4.44085 12.8003 4.55806 12.6831C4.67527 12.5658 4.83424 12.5 5 12.5C5.16576 12.5 5.32473 12.5658 5.44194 12.6831C5.55915 12.8003 5.625 12.9592 5.625 13.125V13.2854C5.62502 13.3525 5.61419 13.4193 5.59292 13.483L5.2573 14.4899L6.43749 15.375C6.47622 15.4042 6.50766 15.442 6.52935 15.4853C6.55104 15.5287 6.56238 15.5765 6.5625 15.625V16.875C6.5624 16.9579 6.52945 17.0373 6.47087 17.0959C6.41228 17.1545 6.33285 17.1874 6.25 17.1875H3.75C3.66715 17.1874 3.58772 17.1545 3.52913 17.0959C3.47055 17.0373 3.43759 16.9579 3.4375 16.875V15.625Z" fill="#276955"/>
<path d="M17.5 6.25V3.75C17.4997 3.50145 17.4009 3.26316 17.2251 3.0874C17.0493 2.91165 16.8111 2.81278 16.5625 2.8125H13.4375C13.1889 2.81278 12.9507 2.91165 12.7749 3.0874C12.5991 3.26316 12.5003 3.50145 12.5 3.75V6.25C12.5003 6.49855 12.5991 6.73684 12.7749 6.9126C12.9507 7.08835 13.1889 7.18721 13.4375 7.1875H16.5625C16.8111 7.18721 17.0493 7.08835 17.2251 6.9126C17.4009 6.73684 17.4997 6.49855 17.5 6.25ZM14.375 3.4375H15V4.6875H14.375V3.4375ZM13.125 6.25V3.75C13.1251 3.66715 13.158 3.58772 13.2166 3.52913C13.2752 3.47055 13.3546 3.43759 13.4375 3.4375H13.75V5.3125H15.625V3.4375H16.5625C16.6454 3.43759 16.7248 3.47055 16.7834 3.52913C16.842 3.58772 16.8749 3.66715 16.875 3.75V6.25C16.8749 6.33285 16.842 6.41228 16.7834 6.47087C16.7248 6.52945 16.6454 6.5624 16.5625 6.5625H13.4375C13.3546 6.5624 13.2752 6.52945 13.2166 6.47087C13.158 6.41228 13.1251 6.33285 13.125 6.25Z" fill="#276955"/>
<path d="M3.75 2.1875V3.52477L2.8125 3.83728V6.25H2.5V6.875H7.5V6.25H7.1875V3.00392L6.5625 3.21225V2.1875H5.9375V3.42058L5.3125 3.62891V3.00392L4.375 3.31643V2.1875H3.75ZM6.5625 3.87108V6.25H5.3125V4.28776L6.5625 3.87108ZM4.6875 6.25H3.4375V4.28772L4.6875 3.87108V6.25Z" fill="#276955"/>
</svg>
    