<svg width="20" height="20" viewBox="0 0 20 20" fill="none" xmlns="http://www.w3.org/2000/svg">
<g clip-path="url(#clip0_2421_3753)">
<path d="M19.2187 3.6328H10.943L13.909 0.666833C14.0615 0.514295 14.0615 0.266952 13.909 0.114375C13.7564 -0.0381249 13.5092 -0.0381249 13.3565 0.114375L9.99996 3.47096L6.64341 0.114375C6.49083 -0.0381249 6.24357 -0.0381249 6.09095 0.114375C5.93841 0.266913 5.93841 0.514256 6.09095 0.666833L9.05692 3.6328H0.781247C0.350467 3.6328 0 3.98327 0 4.41405V17.5952C0 18.026 0.350467 18.3765 0.781247 18.3765H1.55734L2.28687 19.7887C2.35394 19.9185 2.48784 20 2.63393 20H4.41522C4.56131 20 4.69522 19.9185 4.76229 19.7887L5.49181 18.3765H14.5082L15.2377 19.7887C15.3048 19.9185 15.4387 20 15.5848 20H17.3661C17.5122 20 17.6461 19.9185 17.7131 19.7887L18.4427 18.3765H19.2188C19.6495 18.3765 20 18.026 20 17.5952V4.41405C19.9999 3.98323 19.6495 3.6328 19.2187 3.6328ZM4.17733 19.2188H2.87182L2.43671 18.3765H4.61244L4.17733 19.2188ZM17.1281 19.2188H15.8226L15.3875 18.3765H17.5633L17.1281 19.2188ZM19.2187 17.5952H0.781247V4.41405H19.2187L19.2192 17.5952C19.2192 17.5952 19.219 17.5952 19.2187 17.5952Z" fill="#276955"/>
<path d="M13.9607 5.26953H3.62139C2.50053 5.26953 1.58862 6.18144 1.58862 7.3023V14.5596C1.58862 15.6805 2.50053 16.5925 3.62139 16.5925H13.9607C15.0816 16.5925 15.9935 15.6805 15.9935 14.5596V7.3023C15.9935 6.1814 15.0816 5.26953 13.9607 5.26953ZM15.2122 14.5596C15.2122 15.2498 14.6508 15.8112 13.9607 15.8112H3.62139C2.93131 15.8112 2.36987 15.2498 2.36987 14.5596V7.3023C2.36987 6.61222 2.93131 6.05078 3.62139 6.05078H9.92473L4.00361 11.9719C3.85108 12.1244 3.85108 12.3718 4.00361 12.5243C4.0799 12.6006 4.17986 12.6388 4.27982 12.6388C4.37979 12.6388 4.47975 12.6006 4.55603 12.5243L11.0296 6.05078H13.9607C14.6508 6.05078 15.2122 6.61222 15.2122 7.3023V14.5596Z" fill="#276955"/>
<path d="M17.634 10.7334C16.9879 10.7334 16.4622 11.2591 16.4622 11.9053C16.4622 12.5514 16.9879 13.0771 17.634 13.0771C18.2802 13.0771 18.8059 12.5514 18.8059 11.9053C18.8059 11.2591 18.2802 10.7334 17.634 10.7334ZM17.634 12.2959C17.4186 12.2959 17.2434 12.1207 17.2434 11.9053C17.2434 11.6899 17.4186 11.5146 17.634 11.5146C17.8494 11.5146 18.0247 11.6899 18.0247 11.9053C18.0247 12.1207 17.8494 12.2959 17.634 12.2959Z" fill="#276955"/>
<path d="M17.634 14.249C16.9879 14.249 16.4622 14.7747 16.4622 15.4209C16.4622 16.0671 16.9879 16.5928 17.634 16.5928C18.2802 16.5928 18.8059 16.0671 18.8059 15.4209C18.8059 14.7747 18.2802 14.249 17.634 14.249ZM17.634 15.8115C17.4186 15.8115 17.2434 15.6363 17.2434 15.4209C17.2434 15.2055 17.4186 15.0303 17.634 15.0303C17.8494 15.0303 18.0247 15.2055 18.0247 15.4209C18.0247 15.6363 17.8494 15.8115 17.634 15.8115Z" fill="#276955"/>
<path d="M18.3203 7.31445H16.8528C16.6371 7.31445 16.4622 7.48937 16.4622 7.70508C16.4622 7.92078 16.637 8.0957 16.8528 8.0957H18.3203C18.536 8.0957 18.7109 7.92078 18.7109 7.70508C18.7109 7.48937 18.536 7.31445 18.3203 7.31445Z" fill="#276955"/>
<path d="M18.3203 5.72559H16.8528C16.6371 5.72559 16.4622 5.90051 16.4622 6.11621C16.4622 6.33191 16.637 6.50683 16.8528 6.50683H18.3203C18.536 6.50683 18.7109 6.33191 18.7109 6.11621C18.7109 5.90051 18.536 5.72559 18.3203 5.72559Z" fill="#276955"/>
<path d="M18.3203 8.90332H16.8528C16.6371 8.90332 16.4622 9.07824 16.4622 9.29394C16.4622 9.50965 16.637 9.68457 16.8528 9.68457H18.3203C18.536 9.68457 18.7109 9.50965 18.7109 9.29394C18.7109 9.07824 18.536 8.90332 18.3203 8.90332Z" fill="#276955"/>
<path d="M10.9207 9.05969C10.7681 8.90719 10.5208 8.90719 10.3682 9.05969L6.7958 12.6321C6.64326 12.7847 6.64326 13.032 6.7958 13.1846C6.87209 13.2609 6.97205 13.299 7.07201 13.299C7.17197 13.299 7.27193 13.2609 7.34822 13.1846L10.9207 9.61215C11.0732 9.45961 11.0732 9.21227 10.9207 9.05969Z" fill="#276955"/>
<path d="M5.99879 13.9816C5.92617 13.9089 5.82539 13.8672 5.72265 13.8672C5.61992 13.8672 5.51914 13.9089 5.44648 13.9816C5.37383 14.0543 5.33203 14.1551 5.33203 14.2578C5.33203 14.3605 5.37379 14.4613 5.44648 14.5339C5.51914 14.6066 5.61992 14.6484 5.72265 14.6484C5.82539 14.6484 5.92617 14.6066 5.99879 14.5339C6.07144 14.4613 6.11328 14.3605 6.11328 14.2578C6.11328 14.1551 6.07148 14.0543 5.99879 13.9816Z" fill="#276955"/>
<g clip-path="url(#clip1_2421_3753)">
<path fill-rule="evenodd" clip-rule="evenodd" d="M9.65053 11.0719V10.951C9.65053 10.3503 10.1375 9.86328 10.7382 9.86328H12.4615C12.8962 9.86328 13.2715 10.1184 13.4455 10.4871H18.1629C18.7213 10.4871 19.1739 10.9397 19.1739 11.4981V19.9652C19.6927 20.0135 20.0988 20.4502 20.0988 20.9817V23.0796H20.1956C20.5892 23.0796 20.9667 23.236 21.2451 23.5143C21.5234 23.7926 21.6798 24.1701 21.6798 24.5637V24.7144C21.6798 25.534 21.0153 26.1985 20.1956 26.1985H19.1498C18.2528 26.1985 17.5257 25.4714 17.5257 24.5745V20.9817C17.5257 20.4429 17.9431 20.0016 18.4722 19.9634V11.4981C18.4722 11.3273 18.3337 11.1888 18.1629 11.1888H13.5491V11.6566H14.6932C15.2515 11.6566 15.7042 12.1093 15.7042 12.6676V23.588C16.2415 23.6176 16.668 24.0627 16.668 24.6074V26.7053H16.7648C17.1585 26.7053 17.536 26.8617 17.8143 27.14C18.0926 27.4183 18.249 27.7958 18.249 28.1895V28.3401C18.249 29.1597 17.5845 29.8242 16.7648 29.8242H15.719C14.822 29.8242 14.095 29.0971 14.095 28.2002V24.6074C14.095 24.0819 14.4919 23.6492 15.0024 23.5927V12.6676C15.0024 12.4968 14.8639 12.3584 14.6932 12.3584H13.4455C13.2715 12.7271 12.8962 12.9822 12.4615 12.9822H10.7382C10.1375 12.9822 9.65053 12.4952 9.65053 11.8945V11.7736H9.22975C9.05899 11.7736 8.92055 11.912 8.92055 12.0828V26.9266C8.92055 28.5269 7.62325 29.8242 6.02294 29.8242H5.73628C4.96782 29.8242 4.23079 29.5189 3.6874 28.9755C3.14397 28.4321 2.8387 27.6951 2.8387 26.9266V18.5962H2.45956C2.072 18.5962 1.75781 18.282 1.75781 17.8944V12.8385C1.75781 12.1876 2.22272 11.6452 2.8387 11.5253V10.2142C2.8387 10.0205 2.9959 9.86328 3.18958 9.86328C3.38323 9.86328 3.54046 10.0205 3.54046 10.2142V11.5253C4.1564 11.6452 4.62131 12.1876 4.62131 12.8385V17.8944C4.62131 18.282 4.30712 18.5962 3.91956 18.5962H3.54046V26.9266C3.54046 27.509 3.7718 28.0675 4.18357 28.4793C4.59538 28.8911 5.1539 29.1225 5.73628 29.1225H6.02294C7.23569 29.1225 8.2188 28.1394 8.2188 26.9266V12.0828C8.2188 11.5245 8.67143 11.0719 9.22975 11.0719H9.65053ZM17.4971 27.9139C17.4583 27.8106 17.3976 27.7158 17.3181 27.6362C17.1714 27.4895 16.9723 27.4071 16.7648 27.4071H15.9663V24.6074C15.9663 24.4311 15.8234 24.2882 15.6471 24.2882H15.1159C14.9396 24.2882 14.7967 24.4311 14.7967 24.6074V28.2002C14.7967 28.7096 15.2096 29.1225 15.719 29.1225H16.7648C17.0999 29.1225 17.3858 28.9118 17.4973 28.6156H16.688C16.5047 28.6156 16.3562 28.4671 16.3562 28.2838V28.2457C16.3562 28.0625 16.5047 27.9139 16.688 27.9139H17.4971ZM20.9279 24.2882C20.889 24.1849 20.8284 24.0901 20.7488 24.0105C20.6021 23.8638 20.4031 23.7814 20.1956 23.7814H19.3971V20.9817C19.3971 20.8054 19.2542 20.6625 19.0779 20.6625H18.5467C18.3704 20.6625 18.2275 20.8054 18.2275 20.9817V24.5745C18.2275 25.0838 18.6404 25.4968 19.1498 25.4968H20.1956C20.5307 25.4968 20.8166 25.2861 20.9281 24.9899H20.1188C20.0308 24.9899 19.9464 24.955 19.8841 24.8927C19.8219 24.8305 19.7869 24.7461 19.7869 24.6581V24.62C19.7869 24.532 19.8219 24.4476 19.8841 24.3854C19.9464 24.3231 20.0308 24.2882 20.1188 24.2882H20.9279ZM3.91956 15.9621H2.45956V17.8944H3.91956V15.9621ZM2.45956 14.2857V15.2603H3.91956V14.2857H2.45956ZM3.91956 13.5839V12.8385C3.91956 12.4872 3.63476 12.2025 3.2835 12.2025H3.09562C2.74436 12.2025 2.45956 12.4872 2.45956 12.8385V13.5839H3.91956ZM11.249 10.565H10.7382C10.5251 10.565 10.3523 10.7378 10.3523 10.951V11.8945C10.3523 12.1076 10.5251 12.2804 10.7382 12.2804H11.249V10.565ZM11.9507 10.565V12.2804H12.4615C12.6746 12.2804 12.8474 12.1076 12.8474 11.8945V10.951C12.8474 10.7378 12.6746 10.565 12.4615 10.565H11.9507Z" fill="#276955"/>
</g>
</g>
<defs>
<clipPath id="clip0_2421_3753">
<rect width="20" height="20" fill="white"/>
</clipPath>
<clipPath id="clip1_2421_3753">
<rect width="19.9999" height="19.9999" fill="white" transform="translate(1.71875 9.84375)"/>
</clipPath>
</defs>
</svg>
