<svg width="20" height="20" viewBox="0 0 20 20" fill="none" xmlns="http://www.w3.org/2000/svg">
<g clipPath="url(#clip0_2421_3485)">
<path d="M18.8347 14.984C18.7203 14.896 18.571 14.8679 18.4245 14.9068L16.7991 15.3386C16.5469 15.4056 16.3567 15.6564 16.3567 15.9221V17.9666C16.2256 17.9114 16.0794 17.8805 15.9252 17.8805C15.3642 17.8805 14.9077 18.2887 14.9077 18.7905C14.9077 19.2923 15.3642 19.7006 15.9252 19.7006C16.4862 19.7006 16.9426 19.2923 16.9426 18.7905C16.9426 18.7778 16.9426 16.9639 16.9426 16.9639L18.5749 16.5298C18.8272 16.4628 19.0174 16.2119 19.0174 15.9462V15.3697C19.0174 15.2139 18.9508 15.0733 18.8347 14.984ZM15.9252 19.1146C15.6913 19.1146 15.4937 18.9662 15.4937 18.7905C15.4937 18.6148 15.6913 18.4664 15.9252 18.4664C16.159 18.4664 16.3567 18.6148 16.3567 18.7905C16.3566 18.9662 16.159 19.1146 15.9252 19.1146ZM18.4178 15.9652L16.9426 16.3576L16.9424 15.925C16.9435 15.9189 16.9504 15.9081 16.9562 15.9031L18.4315 15.5112L18.4316 15.9432C18.4305 15.9494 18.4236 15.9602 18.4178 15.9652Z" fill="#276955"/>
<path d="M19.1576 5.82122C19.0842 5.67704 18.9078 5.6197 18.7636 5.69306C18.6194 5.76646 18.5621 5.94286 18.6355 6.08704C19.6772 8.13361 19.6772 11.4636 18.6355 13.5101C18.5621 13.6543 18.6194 13.8307 18.7636 13.9041C18.8062 13.9258 18.8516 13.9361 18.8963 13.9361C19.003 13.9361 19.1058 13.8776 19.1576 13.7759C19.7008 12.7087 19.9999 11.2962 19.9999 9.79857C19.9999 8.30091 19.7008 6.88841 19.1576 5.82122Z" fill="#276955"/>
<path d="M17.833 12.0748C17.8756 12.0965 17.9209 12.1067 17.9657 12.1067C18.0723 12.1067 18.1753 12.0481 18.227 11.9465C18.84 10.7417 18.84 8.85423 18.227 7.64943C18.1536 7.50525 17.9772 7.44779 17.833 7.52118C17.6888 7.59458 17.6314 7.77099 17.7048 7.91517C18.233 8.95337 18.233 10.6426 17.7048 11.6808C17.6314 11.825 17.6888 12.0014 17.833 12.0748Z" fill="#276955"/>
<path d="M15.1143 4.68418C13.7485 3.31785 11.9322 2.56543 9.99992 2.56543C8.06769 2.56543 6.25112 3.31785 4.8848 4.68418C2.06573 7.50445 2.06573 12.0934 4.88487 14.9137C6.07499 16.1033 7.65132 16.8445 9.32339 17.0006C9.5473 17.0215 9.77136 17.0319 9.99503 17.0319C11.4198 17.0319 12.8237 16.6114 14.0087 15.8205C14.1432 15.7307 14.1795 15.5487 14.0897 15.4142C13.9998 15.2796 13.8179 15.2433 13.6834 15.3332C11.0602 17.0841 7.53417 16.7334 5.29917 14.4994C2.70843 11.9076 2.70843 7.69031 5.29913 5.09847C6.55472 3.84285 8.22413 3.15137 9.99988 3.15137C11.7756 3.15137 13.4447 3.84281 14.6998 5.09847C17.2916 7.69035 17.2916 11.9075 14.6998 14.4994C14.5854 14.6138 14.5854 14.7993 14.6998 14.9137C14.8143 15.0281 14.9997 15.0281 15.1141 14.9137C17.9345 12.0934 17.9345 7.50445 15.1143 4.68418Z" fill="#276955"/>
<path d="M6.47043 6.17719C6.58629 6.06422 6.58867 5.87875 6.47574 5.76289C6.36277 5.64699 6.1773 5.64469 6.06148 5.75758C4.96262 6.82867 4.35742 8.26363 4.35742 9.79812C4.35742 12.9096 6.88875 15.441 10.0002 15.441C13.1115 15.441 15.6429 12.9096 15.6429 9.79812C15.6429 6.68664 13.1115 4.15527 10.0001 4.15527C9.00648 4.15527 8.02902 4.41758 7.17332 4.91383C7.03336 4.995 6.9857 5.1743 7.06687 5.31426C7.14809 5.45422 7.32738 5.50191 7.46727 5.42074C8.23375 4.97617 9.10957 4.74121 10.0001 4.74121C12.7884 4.74121 15.0568 7.00972 15.0568 9.79816C15.0568 12.5866 12.7884 14.8551 10.0001 14.8551C7.21176 14.8551 4.94328 12.5866 4.94328 9.79816C4.94332 8.42301 5.48566 7.13707 6.47043 6.17719Z" fill="#276955"/>
<path d="M1.47635 2.29043L2.19096 2.65265L2.5535 3.36797C2.63502 3.52773 2.74811 3.60875 2.88963 3.60875H2.89045C2.98799 3.60851 3.12541 3.5664 3.22596 3.36722L3.58814 2.65265L4.30228 2.29062C4.46307 2.20945 4.54459 2.09621 4.54463 1.9541C4.54463 1.81191 4.46314 1.69867 4.30271 1.61766L3.58814 1.25547L3.22611 0.541211C3.14502 0.380703 3.03197 0.299141 2.89006 0.298828C2.88982 0.298828 2.88955 0.298828 2.88932 0.298828C2.79186 0.298828 2.65479 0.340625 2.55307 0.539922L2.19092 1.25551L1.4767 1.6175C1.27717 1.71832 1.23506 1.85574 1.23486 1.95328C1.23459 2.09512 1.31565 2.20848 1.47635 2.29043ZM2.54139 1.73476C2.59701 1.70656 2.64217 1.66137 2.67033 1.60574L2.88939 1.17293L3.10885 1.6059C3.13701 1.66148 3.18213 1.7066 3.23771 1.73476L3.67037 1.95406L3.23768 2.1734C3.18213 2.20156 3.13697 2.24668 3.10881 2.30226L2.88951 2.73492L2.67025 2.30226C2.64209 2.24668 2.59697 2.20156 2.54139 2.1734L2.10869 1.95406L2.54139 1.73476Z" fill="#276955"/>
<path d="M15.4089 2.85254H15.7005C15.8623 2.85254 15.9935 2.72141 15.9935 2.55957C15.9935 2.39773 15.8623 2.2666 15.7005 2.2666H15.4089C15.2471 2.2666 15.116 2.39773 15.116 2.55957C15.116 2.72141 15.2471 2.85254 15.4089 2.85254Z" fill="#276955"/>
<path d="M17.0068 2.85254H17.2984C17.4602 2.85254 17.5914 2.72141 17.5914 2.55957C17.5914 2.39773 17.4602 2.2666 17.2984 2.2666H17.0068C16.845 2.2666 16.7139 2.39773 16.7139 2.55957C16.7139 2.72141 16.845 2.85254 17.0068 2.85254Z" fill="#276955"/>
<path d="M16.3538 3.79742C16.5156 3.79742 16.6467 3.66629 16.6467 3.50445V3.21289C16.6467 3.05105 16.5156 2.91992 16.3538 2.91992C16.1919 2.91992 16.0608 3.05105 16.0608 3.21289V3.50445C16.0608 3.66625 16.192 3.79742 16.3538 3.79742Z" fill="#276955"/>
<path d="M16.3538 2.19977C16.5156 2.19977 16.6467 2.06863 16.6467 1.9068V1.61523C16.6467 1.4534 16.5156 1.32227 16.3538 1.32227C16.1919 1.32227 16.0608 1.4534 16.0608 1.61523V1.9068C16.0608 2.06863 16.192 2.19977 16.3538 2.19977Z" fill="#276955"/>
<path d="M4.59108 16.7441H4.29956C4.13776 16.7441 4.00659 16.8753 4.00659 17.0371C4.00659 17.1989 4.13776 17.3301 4.29956 17.3301H4.59108C4.75288 17.3301 4.88405 17.1989 4.88405 17.0371C4.88405 16.8753 4.75288 16.7441 4.59108 16.7441Z" fill="#276955"/>
<path d="M2.99294 16.7441H2.70142C2.53962 16.7441 2.40845 16.8753 2.40845 17.0371C2.40845 17.1989 2.53962 17.3301 2.70142 17.3301H2.99294C3.15474 17.3301 3.28591 17.1989 3.28591 17.0371C3.28591 16.8753 3.15474 16.7441 2.99294 16.7441Z" fill="#276955"/>
<path d="M3.64624 15.7988C3.48444 15.7988 3.35327 15.93 3.35327 16.0918V16.3844C3.35327 16.5463 3.48444 16.6774 3.64624 16.6774C3.80804 16.6774 3.93921 16.5463 3.93921 16.3844V16.0918C3.93921 15.93 3.80804 15.7988 3.64624 15.7988Z" fill="#276955"/>
<path d="M3.64624 17.3975C3.48444 17.3975 3.35327 17.5286 3.35327 17.6904V17.982C3.35327 18.1438 3.48444 18.2749 3.64624 18.2749C3.80804 18.2749 3.93921 18.1438 3.93921 17.982V17.6904C3.93921 17.5286 3.80804 17.3975 3.64624 17.3975Z" fill="#276955"/>
<path d="M11.2095 9.34815C10.6288 9.45526 10.1739 9.91112 10.1739 10.3859C10.1739 10.6035 10.2673 10.801 10.4367 10.9419C10.6024 11.0799 10.8263 11.1527 11.0729 11.1527C11.1519 11.1527 11.2334 11.1452 11.3159 11.13C11.8959 11.0227 12.3503 10.5669 12.3503 10.0922V7.5592C12.3503 7.54877 12.3497 7.5385 12.3486 7.52835C12.3405 7.3937 12.2799 7.26948 12.1784 7.1842C12.065 7.08889 11.9115 7.04971 11.7562 7.0767L9.07609 7.55225C8.79996 7.60045 8.58363 7.85147 8.58363 8.12366V10.5916C8.41551 10.543 8.22492 10.5349 8.02773 10.5714C7.44707 10.6785 6.99219 11.1343 6.99219 11.6091C6.99219 11.8267 7.08551 12.0242 7.25488 12.1651C7.42063 12.3031 7.64457 12.3759 7.89109 12.3759C7.97012 12.3759 8.05156 12.3685 8.13406 12.3532C8.71473 12.2461 9.16961 11.7902 9.16961 11.3154V9.18139L11.7644 8.72092V9.36827C11.5964 9.31975 11.4063 9.3117 11.2095 9.34815ZM11.2095 10.5539C11.0145 10.5898 10.876 10.5453 10.8115 10.4917C10.7758 10.4619 10.7599 10.4293 10.7599 10.386C10.7599 10.2165 10.9976 9.98311 11.3158 9.92436H11.3159C11.3648 9.91534 11.4101 9.91135 11.4516 9.91135C11.575 9.91135 11.6644 9.94635 11.7126 9.98639C11.7484 10.0162 11.7643 10.0488 11.7643 10.0923C11.7643 10.2617 11.527 10.4951 11.2095 10.5539ZM8.0277 11.7771C7.8325 11.8129 7.69414 11.7685 7.62973 11.7149C7.59402 11.6851 7.57812 11.6525 7.57812 11.6092C7.57812 11.4397 7.81586 11.2063 8.13402 11.1476C8.18313 11.1385 8.22863 11.1346 8.27027 11.1346C8.3941 11.1346 8.48375 11.1696 8.53203 11.2098C8.56773 11.2395 8.58363 11.2721 8.58363 11.3155C8.58359 11.4849 8.34586 11.7183 8.0277 11.7771ZM9.16953 8.58635V8.13573C9.17207 8.13292 9.17559 8.1301 9.17762 8.1294L11.7643 7.67045V8.12588L9.16953 8.58635Z" fill="#276955"/>
<path d="M1.36457 6.08705C1.43797 5.94287 1.38059 5.76646 1.23637 5.69307C1.09215 5.61971 0.915781 5.67701 0.842383 5.82123C0.29918 6.88842 0 8.30096 0 9.79857C0 11.2962 0.29918 12.7087 0.842383 13.7759C0.894102 13.8776 0.996992 13.9361 1.10371 13.9361C1.14844 13.9361 1.19383 13.9258 1.23637 13.9041C1.38055 13.8307 1.43797 13.6543 1.36457 13.5101C0.322852 11.4636 0.322852 8.13357 1.36457 6.08705Z" fill="#276955"/>
<path d="M2.16549 7.52106C2.02119 7.44782 1.84486 7.50539 1.77162 7.64961C1.15978 8.85434 1.15978 10.7416 1.77162 11.9463C1.8233 12.048 1.92623 12.1066 2.03307 12.1066C2.07768 12.1066 2.12299 12.0964 2.16549 12.0748C2.30975 12.0016 2.36733 11.8252 2.29404 11.6809C1.7667 10.6427 1.7667 8.95325 2.29404 7.91496C2.36729 7.77067 2.30975 7.59434 2.16549 7.52106Z" fill="#276955"/>
</g>
<defs>
<clipPath id="clip0_2421_3485">
<rect width="20" height="20" fill="white"/>
</clipPath>
</defs>
</svg>
