<svg width="20" height="20" viewBox="0 0 20 20" fill="none" xmlns="http://www.w3.org/2000/svg">
<g clipPath="url(#clip0_2421_3589)">
<path d="M13.5945 6.06055C13.3785 6.06055 13.2031 6.23511 13.2031 6.45102C13.2031 6.66678 13.3785 6.84164 13.5945 6.84164C13.811 6.84164 13.9859 6.66678 13.9859 6.45102C13.9859 6.23511 13.811 6.06055 13.5945 6.06055Z" fill="#276955"/>
<path d="M6.48319 13.1582C6.2667 13.1582 6.0918 13.3332 6.0918 13.5488C6.0918 13.7649 6.2667 13.9395 6.48319 13.9395C6.69921 13.9395 6.87458 13.7649 6.87458 13.5488C6.87458 13.3332 6.69921 13.1582 6.48319 13.1582Z" fill="#276955"/>
<path d="M19.5717 2.40314C19.4396 2.37247 19.3008 2.4123 19.2054 2.50843L17.5828 4.14066H16.8049L15.9486 3.2552V2.46799L17.548 0.847968C17.6426 0.752143 17.6811 0.614356 17.6498 0.483283C17.6186 0.352363 17.522 0.246772 17.3942 0.203742C16.9924 0.0685491 16.5719 3.70593e-05 16.1443 3.70593e-05C14.8696 3.70593e-05 13.7114 0.593299 12.9669 1.62769C12.27 2.59602 12.0552 3.78269 12.363 4.9184L9.48 7.79576L4.67691 2.99107V2.04807C4.67691 1.9109 4.60475 1.78364 4.48688 1.71314L1.71948 0.0557317C1.56537 -0.0365841 1.3683 -0.0123226 1.2414 0.114478L0.134502 1.21906C0.00760608 1.34586 -0.0167028 1.54255 0.0756406 1.69636L1.73599 4.45835C1.80662 4.576 1.93398 4.64787 2.07142 4.64802L3.01595 4.64832L7.8195 9.45301L4.94752 12.3194C3.80959 12.0124 2.61998 12.2271 1.6493 12.923C0.613495 13.6657 0.0195312 14.8212 0.0195312 16.0935C0.0195312 16.5201 0.0881773 16.9399 0.223635 17.3407C0.266902 17.4691 0.373769 17.566 0.505863 17.5965C0.63811 17.6272 0.776778 17.5873 0.872332 17.4912L2.49476 15.8591H3.27693L4.16811 16.7486V17.5292L2.53283 19.1485C2.43651 19.2438 2.39661 19.3822 2.42734 19.5142C2.45792 19.646 2.555 19.7527 2.68358 19.7959C3.08521 19.9311 3.5058 19.9996 3.93327 19.9996C5.20804 19.9996 6.3657 19.4066 7.10995 18.3728C7.80726 17.4041 8.02238 16.2169 7.71477 15.0812L10.0214 12.7791L10.5497 13.3519L10.3073 13.5938C10.1544 13.7464 10.1544 13.9937 10.3073 14.1463C10.4602 14.2987 10.7078 14.2987 10.8609 14.1463L11.0804 13.9272L16.0379 19.3017C16.0416 19.3056 16.0454 19.3094 16.0492 19.3132C16.9665 20.2288 18.4528 20.2291 19.3705 19.3131C20.2857 18.3992 20.2857 16.9123 19.3705 15.9984C19.3666 15.9945 19.3624 15.9906 19.3583 15.9868L13.9649 11.0485L14.182 10.8318C14.3349 10.6794 14.3349 10.432 14.182 10.2794C14.0291 10.1268 13.7815 10.1268 13.6284 10.2794L13.3876 10.5199L12.8126 9.99318L15.1304 7.67994C15.4598 7.76783 15.7999 7.81239 16.1443 7.81239C18.3025 7.81239 20.0581 6.06007 20.0581 3.90629C20.0581 3.4795 19.9894 3.05988 19.854 2.65888C19.8107 2.53056 19.7038 2.43366 19.5717 2.40314ZM3.45535 3.98182C3.38196 3.90843 3.28244 3.87104 3.17847 3.87104L2.29326 3.87074L0.904133 1.55598L1.57882 0.882606L3.89413 2.26933V3.15281C3.89413 3.25626 3.93526 3.35545 4.00849 3.42869L8.92655 8.34828L8.37294 8.90065L3.45535 3.98182ZM13.4109 11.6015L18.8226 16.5564C19.4271 17.1662 19.4253 18.1534 18.8169 18.7609C18.2072 19.3694 17.2202 19.3712 16.608 18.7662L11.6343 13.3742L13.4109 11.6015ZM12.8336 11.0727L11.1037 12.799L10.5753 12.2261L12.2586 10.546L12.8336 11.0727ZM16.1443 7.03114C15.802 7.03114 15.4653 6.97636 15.144 6.86833C15.0032 6.82118 14.8475 6.85749 14.7423 6.96232C12.7802 8.92063 8.55228 13.1401 6.99544 14.6941C6.89025 14.7991 6.85371 14.9544 6.90126 15.0951C7.2266 16.0593 7.07096 17.0878 6.47409 17.9171C5.87891 18.7439 4.95272 19.2183 3.93327 19.2183C3.81876 19.2183 3.70486 19.2121 3.59203 19.2L4.83515 17.9689C4.90915 17.8957 4.95089 17.7959 4.95089 17.6917V16.5867C4.95089 16.483 4.90961 16.3837 4.83622 16.3105L3.71572 15.1922C3.64233 15.1189 3.5428 15.0777 3.43899 15.0777H2.33179C2.22737 15.0777 2.12738 15.1194 2.05384 15.1932L0.820504 16.4339C0.808273 16.3213 0.802157 16.2076 0.802157 16.0933C0.802157 15.0757 1.27733 14.1515 2.10597 13.5575C2.93676 12.9618 3.96737 12.8063 4.93361 13.1311C5.07442 13.1786 5.23006 13.1421 5.33524 13.0372C5.3568 13.0158 13.0767 5.31086 13.0822 5.30537C13.1873 5.20039 13.2237 5.04521 13.1763 4.90452C12.8508 3.94032 13.0062 2.91218 13.6026 2.08347C14.1982 1.25584 15.1246 0.781287 16.1442 0.781287C16.2622 0.781287 16.3795 0.787849 16.4957 0.800666L15.2784 2.03373C15.2062 2.10682 15.1658 2.20524 15.1658 2.30778V3.41282C15.1658 3.51414 15.2051 3.61134 15.2756 3.68412L16.357 4.80244C16.4307 4.87873 16.5323 4.92176 16.6386 4.92176H17.7458C17.8501 4.92176 17.9501 4.88026 18.0236 4.80625L19.2569 3.56571C19.2692 3.67832 19.2753 3.792 19.2753 3.90629C19.2753 5.62931 17.8707 7.03114 16.1443 7.03114Z" fill="#276955"/>
<path d="M12.211 7.27948L7.31328 12.1676C7.16055 12.3201 7.16055 12.5674 7.31328 12.72C7.46617 12.8726 7.714 12.8726 7.86688 12.72L12.7646 7.83185C12.9175 7.67941 12.9175 7.43207 12.7646 7.27948C12.6117 7.12689 12.3639 7.12689 12.211 7.27948Z" fill="#276955"/>
<path d="M17.1568 17.6564C17.3097 17.8085 17.5575 17.8085 17.7104 17.6555C17.863 17.5027 17.8625 17.2554 17.7095 17.1031L14.1816 13.5934C14.0286 13.4411 13.7806 13.4416 13.6282 13.5943C13.4755 13.7472 13.4759 13.9944 13.629 14.1467L17.1568 17.6564Z" fill="#276955"/>
</g>
<defs>
<clipPath id="clip0_2421_3589">
<rect width="20" height="20" fill="white"/>
</clipPath>
</defs>
</svg>
