<svg width="20" height="20" viewBox="0 0 20 20" fill="none" xmlns="http://www.w3.org/2000/svg">
<path d="M6.8756 0.625C5.496 0.625 4.375 1.74602 4.375 3.12562V4.29926C4.18493 4.47138 4.0625 4.72556 4.0625 4.99938C4.0625 5.57022 4.5216 5.94747 5.02137 5.93567C5.08893 6.40529 5.30815 6.82809 5.625 7.1521V8.4369C4.52188 8.4369 3.57171 9.07346 3.11157 9.99942H2.5C1.98603 9.99942 1.5625 10.4229 1.5625 10.9369V12.1869C1.55659 12.6095 2.19348 12.6095 2.1875 12.1869V10.9369C2.1875 10.7584 2.32146 10.6244 2.5 10.6244H11.875C12.0535 10.6244 12.1875 10.7584 12.1875 10.9369V16.2488H2.1875V14.9994C2.18986 14.8232 2.04629 14.6799 1.87012 14.6826C1.69777 14.685 1.56014 14.827 1.5625 14.9994V16.8744C1.5625 17.1026 1.62888 17.3146 1.73705 17.4994H0.937494C0.764911 17.4988 0.624466 17.6381 0.623781 17.8107V19.0613C0.623156 19.2348 0.763955 19.3757 0.937494 19.375H19.0625C19.2351 19.3744 19.3744 19.2339 19.3738 19.0613V17.8107C19.3731 17.639 19.2341 17.5001 19.0625 17.4994H16.8665C17.0049 17.3167 17.1084 17.1068 17.1558 16.8744H17.5012C18.0152 16.8744 18.4375 16.4515 18.4375 15.9375V15.3125C18.4381 15.1399 18.2988 14.9995 18.1262 14.9988H17.1875V14.6875C17.1881 14.5147 17.0484 14.3742 16.8756 14.3738H13.75C13.5774 14.3744 13.4381 14.5149 13.4387 14.6875V16.5631C13.4387 16.9158 13.5613 17.2375 13.7598 17.4994H12.6379C12.7461 17.3146 12.8125 17.1026 12.8125 16.8744V10.9369C12.8125 10.4229 12.389 9.99942 11.875 9.99942H11.2634C10.8033 9.07346 9.85311 8.4369 8.75 8.4369V7.1521C9.03404 6.88506 9.28311 6.43191 9.35241 5.93812C9.95475 5.93795 10.3125 5.46834 10.3125 4.99938C10.3125 4.72495 10.1945 4.46661 10 4.30055L9.9988 3.12562C9.99763 1.74602 8.88025 0.625 7.50065 0.625H6.8756ZM6.8756 1.25001H7.50061C8.54476 1.25001 9.37378 2.08146 9.37378 3.12562V4.0619H9.19188L8.34533 3.21533C8.22343 3.09416 8.02656 3.09416 7.90466 3.21533C7.90466 3.21533 7.03063 4.0619 5.93689 4.0619H5V3.12562C5 2.08146 5.83144 1.25001 6.8756 1.25001ZM8.10779 3.86218L8.75 4.50381V5.62439C8.75 6.49543 8.05852 7.18692 7.1875 7.18692C6.31646 7.18692 5.62499 6.49543 5.62499 5.62439V4.68753H5.93689C7.00708 4.68753 7.78087 4.1116 8.10779 3.86218ZM5 5.31192C4.82147 5.31192 4.68749 5.16701 4.68749 4.99938C4.68749 4.83177 4.82007 4.68917 4.99847 4.68753L5 5.31192ZM9.6875 4.99938C9.6875 5.1706 9.55353 5.31192 9.37499 5.31192L9.37618 4.68753C9.55455 4.68871 9.68712 4.82929 9.68712 4.99938H9.6875ZM6.25 7.59768C6.53462 7.73345 6.85163 7.81189 7.1875 7.81189C7.52337 7.81189 7.84036 7.73348 8.125 7.59768V8.4369C8.125 8.4369 8.12262 9.06191 7.1875 9.06191C6.25183 9.06191 6.25 8.4369 6.25 8.4369V7.59768ZM5.82457 9.06191C5.82457 9.06191 6.12747 9.68688 7.1875 9.68688C8.24752 9.68688 8.55042 9.06191 8.55042 9.06191H8.75C9.49826 9.06191 10.1476 9.43417 10.5414 9.99942H3.83362C4.22736 9.43417 4.87672 9.06191 5.62499 9.06191H5.82457ZM14.682 11.8707C14.5101 11.8743 14.373 12.015 14.375 12.1869V13.4369C14.3655 13.8627 15.0092 13.8627 15 13.4369V12.1869C15.0024 12.0107 14.8582 11.8676 14.682 11.8707ZM15.932 11.8707C15.7604 11.8743 15.6236 12.0152 15.6256 12.1869V13.4369C15.6162 13.863 16.2602 13.863 16.2506 13.4369V12.1869C16.253 12.0105 16.1084 11.8673 15.932 11.8707ZM7.18688 12.5006C6.67282 12.5006 6.25061 12.9253 6.25061 13.4394C6.25061 13.9534 6.67282 14.3763 7.18688 14.3763C7.70094 14.3763 8.12621 13.9534 8.12621 13.4394C8.12621 12.9253 7.70094 12.5006 7.18688 12.5006ZM1.87012 13.1201C1.69777 13.1225 1.56014 13.2646 1.5625 13.4369V13.7494C1.55659 14.172 2.19348 14.172 2.1875 13.7494V13.4369C2.18986 13.2607 2.04629 13.1174 1.87012 13.1201ZM7.18688 13.126C7.36317 13.126 7.50061 13.2635 7.50061 13.4398C7.50061 13.616 7.36317 13.751 7.18688 13.751C7.01059 13.751 6.8756 13.616 6.8756 13.4398C6.8756 13.2635 7.01059 13.126 7.18688 13.126ZM14.0613 14.9992H16.5619V16.5635C16.5619 17.0883 16.1504 17.4998 15.6256 17.4998H15C14.4752 17.4998 14.0613 17.0883 14.0613 16.5635V14.9992ZM17.1875 15.6242H17.8125V15.9379C17.8125 16.1165 17.6797 16.2492 17.5012 16.2492H17.1875V15.6242ZM2.1875 16.8748H12.1875C12.1875 17.2265 11.9142 17.4998 11.5625 17.4998H2.81249C2.46083 17.4998 2.1875 17.2265 2.1875 16.8748ZM1.24939 18.1248H18.7488V18.7504H1.24939V18.1248Z" fill="#276955"/>
</svg>
