<svg width="137" height="18" viewBox="0 0 137 18" fill="none" xmlns="http://www.w3.org/2000/svg">
<path d="M9 0L11.0206 6.21885H17.5595L12.2694 10.0623L14.2901 16.2812L9 12.4377L3.70993 16.2812L5.73056 10.0623L0.440492 6.21885H6.97937L9 0Z" fill="#F1B940"/>
<path d="M30 0L32.0206 6.21885H38.5595L33.2694 10.0623L35.2901 16.2812L30 12.4377L24.7099 16.2812L26.7306 10.0623L21.4405 6.21885H27.9794L30 0Z" fill="#F1B940"/>
<path d="M51 0L53.0206 6.21885H59.5595L54.2694 10.0623L56.2901 16.2812L51 12.4377L45.7099 16.2812L47.7306 10.0623L42.4405 6.21885H48.9794L51 0Z" fill="#F1B940"/>
<path d="M72 0L74.0206 6.21885H80.5595L75.2694 10.0623L77.2901 16.2812L72 12.4377L66.7099 16.2812L68.7306 10.0623L63.4405 6.21885H69.9794L72 0Z" fill="#F1B940"/>
<path d="M93 0L95.0206 6.21885H101.56L96.2694 10.0623L98.2901 16.2812L93 12.4377L87.7099 16.2812L89.7306 10.0623L84.4405 6.21885H90.9794L93 0Z" fill="#B9B7B7"/>
<path d="M108.85 8.354C108.738 8.214 108.626 8.074 108.514 7.934C108.402 7.794 108.299 7.654 108.206 7.514C108.113 7.36467 108.033 7.21533 107.968 7.066C107.912 6.91667 107.884 6.76733 107.884 6.618C107.884 6.254 108.005 5.988 108.248 5.82C108.491 5.64267 108.752 5.554 109.032 5.554C109.387 5.554 109.667 5.66133 109.872 5.876C110.077 6.08133 110.18 6.32867 110.18 6.618C110.18 6.83267 110.138 7.02867 110.054 7.206C109.97 7.374 109.863 7.528 109.732 7.668C109.601 7.808 109.457 7.934 109.298 8.046C109.139 8.158 108.99 8.26067 108.85 8.354ZM111.412 13.254L112.476 14.5H114.03L112.084 12.246C112.187 12.022 112.275 11.826 112.35 11.658C112.425 11.4807 112.485 11.3033 112.532 11.126C112.588 10.9487 112.63 10.7573 112.658 10.552C112.695 10.3373 112.728 10.0807 112.756 9.782H111.622C111.594 10.2953 111.487 10.8133 111.3 11.336L109.494 9.138C109.737 8.998 109.97 8.844 110.194 8.676C110.418 8.49867 110.619 8.30267 110.796 8.088C110.973 7.87333 111.113 7.64 111.216 7.388C111.319 7.12667 111.37 6.84667 111.37 6.548C111.37 6.212 111.3 5.918 111.16 5.666C111.029 5.40467 110.852 5.19 110.628 5.022C110.404 4.84467 110.143 4.714 109.844 4.63C109.555 4.546 109.256 4.504 108.948 4.504C108.584 4.504 108.262 4.56 107.982 4.672C107.702 4.784 107.464 4.938 107.268 5.134C107.081 5.32067 106.937 5.54 106.834 5.792C106.741 6.03467 106.694 6.29133 106.694 6.562C106.694 6.814 106.722 7.04267 106.778 7.248C106.843 7.444 106.927 7.63533 107.03 7.822C107.142 7.99933 107.263 8.17667 107.394 8.354C107.525 8.53133 107.66 8.718 107.8 8.914C107.483 9.082 107.179 9.264 106.89 9.46C106.61 9.64667 106.363 9.86133 106.148 10.104C105.943 10.3373 105.775 10.6033 105.644 10.902C105.523 11.2007 105.462 11.546 105.462 11.938C105.462 12.1433 105.495 12.4 105.56 12.708C105.635 13.016 105.784 13.3147 106.008 13.604C106.232 13.8933 106.549 14.1407 106.96 14.346C107.371 14.5513 107.912 14.654 108.584 14.654C109.135 14.654 109.667 14.5373 110.18 14.304C110.703 14.0707 111.113 13.7207 111.412 13.254ZM108.458 9.67L110.754 12.428C110.511 12.792 110.208 13.0813 109.844 13.296C109.489 13.5107 109.083 13.618 108.626 13.618C108.383 13.618 108.145 13.576 107.912 13.492C107.688 13.408 107.487 13.296 107.31 13.156C107.133 13.0067 106.988 12.8293 106.876 12.624C106.773 12.4093 106.722 12.176 106.722 11.924C106.722 11.6253 106.769 11.3687 106.862 11.154C106.955 10.93 107.081 10.7293 107.24 10.552C107.399 10.3747 107.581 10.216 107.786 10.076C108.001 9.936 108.225 9.80067 108.458 9.67ZM126.857 10.888V4.504H125.527V10.888C125.527 11.784 125.303 12.4653 124.855 12.932C124.416 13.3893 123.772 13.618 122.923 13.618C122.027 13.618 121.341 13.3893 120.865 12.932C120.389 12.4653 120.151 11.784 120.151 10.888V4.504H118.821V10.888C118.821 12.2227 119.18 13.198 119.899 13.814C120.627 14.4207 121.635 14.724 122.923 14.724C124.183 14.724 125.154 14.4067 125.835 13.772C126.516 13.128 126.857 12.1667 126.857 10.888ZM128.861 7.262V17.258H130.051V13.534H130.079C130.21 13.7487 130.369 13.9307 130.555 14.08C130.751 14.22 130.957 14.332 131.171 14.416C131.386 14.5 131.601 14.5607 131.815 14.598C132.039 14.6353 132.24 14.654 132.417 14.654C132.968 14.654 133.449 14.556 133.859 14.36C134.279 14.164 134.625 13.898 134.895 13.562C135.175 13.2167 135.381 12.8153 135.511 12.358C135.651 11.9007 135.721 11.4153 135.721 10.902C135.721 10.3887 135.651 9.90333 135.511 9.446C135.371 8.98867 135.161 8.58733 134.881 8.242C134.611 7.88733 134.265 7.60733 133.845 7.402C133.435 7.19667 132.949 7.094 132.389 7.094C131.885 7.094 131.423 7.18733 131.003 7.374C130.583 7.55133 130.275 7.84067 130.079 8.242H130.051V7.262H128.861ZM134.461 10.818C134.461 11.1727 134.424 11.518 134.349 11.854C134.275 12.19 134.153 12.4887 133.985 12.75C133.817 13.0113 133.593 13.2213 133.313 13.38C133.043 13.5387 132.702 13.618 132.291 13.618C131.881 13.618 131.531 13.5433 131.241 13.394C130.952 13.2353 130.714 13.03 130.527 12.778C130.35 12.526 130.219 12.2367 130.135 11.91C130.051 11.574 130.009 11.2287 130.009 10.874C130.009 10.538 130.047 10.2067 130.121 9.88C130.205 9.55333 130.336 9.264 130.513 9.012C130.691 8.75067 130.919 8.54067 131.199 8.382C131.479 8.22333 131.82 8.144 132.221 8.144C132.604 8.144 132.935 8.21867 133.215 8.368C133.505 8.51733 133.738 8.718 133.915 8.97C134.102 9.222 134.237 9.51133 134.321 9.838C134.415 10.1553 134.461 10.482 134.461 10.818Z" fill="#1B1B1B"/>
</svg>
