<svg width="20" height="20" viewBox="0 0 20 20" fill="none" xmlns="http://www.w3.org/2000/svg">
<g clipPath="url(#clip0_2421_2843)">
<path d="M10 13.9988C12.3995 13.9988 14.3515 12.0466 14.3515 9.64719V4.35152C14.3515 1.95211 12.3995 0 10 0C7.60055 0 5.64848 1.95211 5.64848 4.35152V9.64715C5.64848 12.0467 7.60055 13.9988 10 13.9988ZM6.89848 4.35152C6.89848 2.64133 8.2898 1.25 10 1.25C11.7102 1.25 13.1015 2.64133 13.1015 4.35152V9.64715C13.1015 11.3573 11.7102 12.7487 10 12.7487C8.2898 12.7487 6.89848 11.3573 6.89848 9.64715V4.35152ZM17.1714 10.9053C16.8787 12.5683 16.002 14.092 14.7027 15.1957C13.5477 16.177 12.1189 16.7709 10.625 16.9011V18.75H14.6875C15.0327 18.75 15.3125 19.0298 15.3125 19.375C15.3125 19.7202 15.0327 20 14.6875 20H5.3125C4.9673 20 4.6875 19.7202 4.6875 19.375C4.6875 19.0298 4.9673 18.75 5.3125 18.75H9.375V16.9011C7.88105 16.7709 6.45238 16.177 5.2973 15.1957C3.99801 14.092 3.12129 12.5683 2.82859 10.9053C2.76879 10.5653 2.99582 10.2412 3.33578 10.1814C3.6757 10.1216 3.99984 10.3487 4.05965 10.6886C4.56852 13.5799 7.0668 15.6784 10 15.6784C12.9332 15.6784 15.4315 13.5799 15.9404 10.6886C16.0002 10.3486 16.3242 10.1215 16.6642 10.1814C17.0042 10.2412 17.2312 10.5653 17.1714 10.9053ZM17.1809 4.20969V7.82043C17.1809 8.16563 16.9011 8.44543 16.5559 8.44543C16.2107 8.44543 15.9309 8.16563 15.9309 7.82043V4.20969C15.9309 3.86449 16.2107 3.58469 16.5559 3.58469C16.9011 3.58469 17.1809 3.86449 17.1809 4.20969ZM20 5.06961V6.96039C20 7.30559 19.7202 7.58539 19.375 7.58539C19.0298 7.58539 18.75 7.30559 18.75 6.96039V5.06961C18.75 4.72441 19.0298 4.44461 19.375 4.44461C19.7202 4.44461 20 4.72441 20 5.06961ZM2.81914 7.82039V4.20965C2.81914 3.86445 3.09895 3.58465 3.44414 3.58465C3.78934 3.58465 4.06914 3.86445 4.06914 4.20965V7.82039C4.06914 8.16559 3.78934 8.44539 3.44414 8.44539C3.09895 8.44539 2.81914 8.16559 2.81914 7.82039ZM1.25 5.06961V6.96039C1.25 7.30559 0.970195 7.58539 0.625 7.58539C0.279805 7.58539 0 7.30559 0 6.96039V5.06961C0 4.72441 0.279805 4.44461 0.625 4.44461C0.970195 4.44461 1.25 4.72441 1.25 5.06961Z" fill="#276955"/>
</g>
<defs>
<clipPath id="clip0_2421_2843">
<rect width="20" height="20" fill="white"/>
</clipPath>
</defs>
</svg>
