<svg width="20" height="20" viewBox="0 0 20 20" fill="none" xmlns="http://www.w3.org/2000/svg">
<path d="M17.2455 2.00358C15.6584 1.27335 13.5975 2.34644 12.6514 4.39554C12.1156 5.55593 12.0273 6.81523 12.4094 7.85054C12.6828 8.59128 13.1684 9.1398 13.814 9.43679C14.1473 9.58939 14.5099 9.66758 14.8765 9.66593C16.228 9.66593 17.6634 8.65773 18.4081 7.04484C18.9439 5.88445 19.0321 4.62511 18.65 3.58983C18.3768 2.84925 17.8911 2.30073 17.2455 2.00358ZM17.2559 2.53944C17.5842 2.7427 17.8531 3.02894 18.0354 3.36929L17.9627 3.52671L17.0039 3.08562L17.2559 2.53944ZM13.9437 6.07683L14.3056 5.29292L15.2645 5.73409L14.9025 6.518L13.9437 6.07683ZM14.7061 6.94359L14.3441 7.72745L13.3852 7.28628L13.7472 6.50241L14.7061 6.94359ZM14.5021 4.86737L14.8641 4.08347L15.823 4.52464L15.4609 5.3087L14.5021 4.86737ZM15.6904 5.92987L16.6493 6.37105L16.2873 7.15495L15.3284 6.71378L15.6904 5.92987ZM15.8869 5.50409L16.2488 4.72023L17.2077 5.1614L16.8457 5.9453L15.8869 5.50409ZM16.4453 4.29515L16.8073 3.5114L17.7662 3.95257L17.4042 4.73644L16.4453 4.29515ZM15.6914 2.29171C15.8502 2.25868 16.0119 2.24175 16.1741 2.24116C16.3968 2.24051 16.6181 2.27516 16.83 2.34382L16.5781 2.8898L15.619 2.44858L15.6914 2.29171ZM15.4225 2.87417L16.3814 3.31534L16.0195 4.09925L15.0606 3.65808L15.4225 2.87417ZM14.8477 2.60964L14.9968 2.67823L14.6348 3.46214L14.0595 3.19745C14.2957 2.96822 14.5606 2.77063 14.8477 2.60964ZM13.7245 3.55933L14.4382 3.88773L14.0763 4.67155L13.2333 4.2837C13.374 4.02742 13.5385 3.78489 13.7245 3.55933ZM13.0268 4.70472L13.8798 5.09734L13.5178 5.88124L12.7549 5.53019C12.8203 5.24737 12.9114 4.97108 13.0268 4.70472ZM12.6729 6.95863C12.634 6.64286 12.6336 6.32354 12.6717 6.00769L13.3213 6.30655L12.9594 7.09046L12.6729 6.95863ZM13.8025 8.90038C13.4744 8.69688 13.2056 8.41046 13.0234 8.06999L13.1888 7.71202L14.1476 8.1532L13.8025 8.90038ZM15.3663 9.14972C14.9888 9.23139 14.5966 9.21299 14.2284 9.09636L14.5734 8.34906L15.5323 8.79023L15.3663 9.14972ZM15.7288 8.36456L14.7699 7.92355L15.1319 7.13964L16.0908 7.58081L15.7288 8.36456ZM16.4409 8.69218L16.1546 8.5605L16.5166 7.77659L17.1654 8.07507C16.9493 8.30893 16.7061 8.51615 16.4409 8.69234V8.69218ZM17.476 7.7021L16.7131 7.35124L17.0751 6.56734L17.9291 6.96023C17.801 7.22086 17.6495 7.46923 17.4762 7.70226L17.476 7.7021ZM18.1159 6.53023L17.2714 6.14163L17.6334 5.35773L18.3499 5.68745C18.2985 5.97508 18.2202 6.25726 18.1161 6.5303L18.1159 6.53023ZM18.4083 5.19819L17.8298 4.93206L18.1918 4.14819L18.3423 4.21741C18.4074 4.54007 18.4297 4.86991 18.4085 5.19839L18.4083 5.19819Z" fill="#276955"/>
<path d="M17.691 1.03924C15.6585 0.104163 13.0355 1.44319 11.8438 4.02424C11.1762 5.47033 11.0693 7.04811 11.5509 8.35291C11.7984 9.02373 12.1826 9.57217 12.6788 9.97303L11.7476 11.9899L11.6465 11.9683C11.5365 11.9447 11.4248 11.9301 11.3124 11.9246L11.1416 11.677C11.0032 11.4767 10.9439 11.2323 10.9751 10.9909C11.0211 10.6348 10.9336 10.2742 10.7294 9.97873L5.57642 2.51217C5.35012 2.18553 5.00366 1.96181 4.61283 1.88996C4.22201 1.81811 3.81863 1.90397 3.49095 2.12877C3.3288 2.24016 3.19021 2.38244 3.08311 2.54746C2.97601 2.71249 2.90251 2.89701 2.86681 3.09047C2.83112 3.28394 2.83393 3.48254 2.87508 3.67491C2.91624 3.86729 2.99493 4.04966 3.10666 4.21158L6.12009 8.57799C5.27359 8.42253 4.40129 8.4882 3.5876 8.76864C2.77391 9.04907 2.04638 9.53478 1.4754 10.1788C0.904425 10.8228 0.509332 11.6032 0.328353 12.4446C0.147375 13.286 0.186639 14.1599 0.442345 14.9817C0.698052 15.8035 1.16154 16.5454 1.78797 17.1356C2.4144 17.7258 3.18256 18.1443 4.01812 18.3506C4.85368 18.557 5.72835 18.5441 6.55751 18.3134C7.38666 18.0826 8.14222 17.6418 8.75107 17.0335C8.78681 16.9979 8.8217 16.9616 8.85615 16.9251C8.74555 17.2403 8.72719 17.5805 8.80324 17.9058C8.8793 18.231 9.04659 18.5279 9.28549 18.7613C9.52438 18.9948 9.82494 19.1553 10.1519 19.2239C10.4788 19.2924 10.8185 19.2663 11.1311 19.1485C11.4437 19.0307 11.7161 18.8262 11.9165 18.5589C12.1168 18.2916 12.2368 17.9727 12.2622 17.6396C12.2875 17.3065 12.2174 16.9731 12.0598 16.6786C11.9023 16.384 11.664 16.1405 11.3729 15.9767L11.7515 16.0548L12.1737 16.2835L13.2253 17.8075L13.1946 17.8286C13.1365 17.8685 13.0869 17.9195 13.0485 17.9786C13.0102 18.0377 12.9839 18.1038 12.9711 18.1731C12.9583 18.2424 12.9593 18.3136 12.9741 18.3825C12.9888 18.4514 13.017 18.5167 13.057 18.5747C13.222 18.813 13.4747 18.9763 13.7598 19.0287C14.0449 19.0812 14.3392 19.0185 14.5782 18.8546L15.1946 18.4307C15.3236 18.3418 15.432 18.2263 15.5125 18.092L15.7742 18.2337C16.0406 18.3784 16.3524 18.4149 16.6449 18.3358L17.6635 18.0617C17.7246 18.0452 17.7809 18.0143 17.8275 17.9715C17.8741 17.9286 17.9097 17.8752 17.9312 17.8157C17.9528 17.7561 17.9596 17.6923 17.9512 17.6295C17.9427 17.5668 17.9193 17.507 17.8828 17.4553L17.1095 16.3589L18.5562 15.7476C18.5578 15.747 18.5594 15.7462 18.561 15.7455C18.6203 15.7189 18.672 15.6781 18.7116 15.6266C18.7512 15.5752 18.7775 15.5147 18.788 15.4506C18.7986 15.3865 18.7931 15.3208 18.772 15.2594C18.7509 15.198 18.715 15.1427 18.6674 15.0985L17.6352 14.0903L18.7682 13.3682C18.822 13.3339 18.8666 13.2871 18.8983 13.2317C18.9299 13.1763 18.9476 13.1141 18.9499 13.0503C18.9521 12.9866 18.9388 12.9233 18.9111 12.8658C18.8834 12.8084 18.8421 12.7585 18.7908 12.7206L17.9558 12.1022C17.7284 11.9337 17.4481 11.8525 17.1658 11.8733L13.4666 12.1122L14.1437 10.6458C14.3436 10.6819 14.5464 10.7 14.7496 10.6999C16.4687 10.6999 18.2823 9.43971 19.2164 7.41682C19.8841 5.97073 19.9909 4.39295 19.5093 3.08815C19.1564 2.13268 18.5278 1.42428 17.691 1.03924ZM11.3328 12.3958L10.6946 15.3712C10.4809 15.3478 10.1742 15.2892 9.9767 15.0401C10.1379 14.5411 10.2197 14.0199 10.2192 13.4955C10.2191 13.3139 10.2093 13.1323 10.1897 12.9517C10.3115 12.5843 10.7997 12.3553 11.3328 12.3958ZM10.277 15.7665C10.0005 15.8037 9.73703 15.9067 9.50861 16.0668C9.61497 15.8905 9.71021 15.7078 9.79377 15.5196C9.9368 15.6332 10.1011 15.7172 10.277 15.7665ZM5.95517 9.02479C6.24315 9.07235 6.52589 9.14746 6.79951 9.24908C6.84961 9.26794 6.90465 9.26907 6.95548 9.2523C7.00632 9.23553 7.04988 9.20186 7.07892 9.1569V9.15662C7.09785 9.12724 7.10995 9.09399 7.11436 9.05932C7.11877 9.02464 7.11538 8.98942 7.10441 8.95624C7.09345 8.92305 7.07521 8.89273 7.05101 8.86751C7.02682 8.84228 6.99729 8.82279 6.96459 8.81045C6.91435 8.79174 6.86381 8.77416 6.8131 8.75713L3.49248 3.94518C3.41575 3.83397 3.36171 3.70872 3.33345 3.5766C3.30519 3.44449 3.30327 3.30809 3.3278 3.17523C3.35233 3.04236 3.40282 2.91564 3.47639 2.80232C3.54996 2.689 3.64516 2.59131 3.75654 2.51483C3.98187 2.36027 4.25924 2.30123 4.52798 2.35063C4.79672 2.40003 5.03496 2.55384 5.1906 2.77842L10.3433 10.245C10.4818 10.4453 10.5411 10.6897 10.5099 10.9311C10.4638 11.2873 10.5514 11.6478 10.7555 11.9432L10.7745 11.9706C10.518 12.0258 10.2791 12.1434 10.0789 12.3131C9.86257 11.4202 9.40294 10.6048 8.75107 9.95737C8.65394 9.86036 8.55382 9.76826 8.45072 9.68108C8.42735 9.6602 8.40003 9.64423 8.37038 9.6341C8.34072 9.62397 8.30934 9.61989 8.27808 9.6221C8.24683 9.62431 8.21633 9.63277 8.1884 9.64697C8.16046 9.66117 8.13566 9.68083 8.11546 9.70478C8.09525 9.72873 8.08006 9.75649 8.07077 9.78642C8.06148 9.81635 8.05829 9.84783 8.06138 9.87901C8.06447 9.9102 8.07378 9.94044 8.08877 9.96796C8.10375 9.99548 8.1241 10.0197 8.14861 10.0392C8.18252 10.068 8.21572 10.0978 8.24896 10.128L6.68681 11.6874C6.37222 11.3273 6.14302 10.9008 6.01633 10.4398C5.88964 9.97875 5.86874 9.49504 5.95517 9.02479ZM9.68908 12.7481C9.21775 12.8349 8.7329 12.8145 8.27057 12.6882C7.80824 12.5619 7.38032 12.333 7.01861 12.0186L8.58111 10.4588C9.16335 11.0991 9.54811 11.8941 9.68908 12.7481ZM5.20713 8.96307C5.30103 8.96307 5.39489 8.96601 5.48869 8.9719C5.39387 9.51225 5.42247 10.0671 5.57235 10.5948C5.72223 11.1225 5.98951 11.6095 6.3542 12.0194L5.20713 13.1644L2.16494 10.1276C2.99975 9.37605 4.08382 8.96106 5.20713 8.96307ZM0.664154 13.4955C0.661116 12.3728 1.07817 11.2896 1.83333 10.4588L4.87552 13.4955L3.7349 14.6341C3.32024 14.2725 2.83042 14.0075 2.30084 13.8584C1.77126 13.7093 1.21516 13.6797 0.672747 13.7717C0.66724 13.6801 0.664154 13.5881 0.664154 13.4955ZM0.724662 14.2377C1.19703 14.1495 1.68323 14.1691 2.14693 14.2952C2.61063 14.4213 3.03983 14.6506 3.40244 14.9659L1.83326 16.5323C1.24989 15.8906 0.864844 15.0937 0.724662 14.2378V14.2377ZM4.46455 17.9672C3.60799 17.8276 2.80972 17.4444 2.16509 16.8633L3.73431 15.2969C4.04988 15.6579 4.27954 16.0858 4.40601 16.5483C4.53249 17.0108 4.5525 17.496 4.46455 17.9673V17.9672ZM4.9306 18.0192C5.02224 17.4779 4.99224 16.9231 4.84278 16.3948C4.69332 15.8666 4.42815 15.3783 4.0665 14.9653L5.20713 13.8267L8.24931 16.8634C7.80073 17.267 7.27619 17.5771 6.70636 17.7756C6.13652 17.9741 5.53284 18.0569 4.9306 18.0194V18.0192ZM8.58127 16.5321L5.53916 13.4955L6.68662 12.3501C7.35405 12.9423 8.21532 13.2693 9.10756 13.2694C9.32007 13.2692 9.53217 13.2508 9.74154 13.2144C9.74721 13.3076 9.75041 13.4014 9.75041 13.4956C9.75341 14.6183 9.33637 15.7015 8.58127 16.5322V16.5321ZM11.7985 17.5053C11.7985 17.7597 11.723 18.0083 11.5817 18.2199C11.4404 18.4314 11.2395 18.5962 11.0044 18.6936C10.7694 18.791 10.5108 18.8164 10.2613 18.7668C10.0117 18.7172 9.78255 18.5946 9.60266 18.4148C9.42277 18.2349 9.30027 18.0057 9.25063 17.7562C9.201 17.5067 9.22647 17.248 9.32382 17.013C9.42117 16.778 9.58603 16.5771 9.79756 16.4357C10.0091 16.2944 10.2578 16.2189 10.5122 16.2189C10.8532 16.2193 11.1802 16.355 11.4214 16.5961C11.6625 16.8373 11.7982 17.1643 11.7985 17.5054V17.5053ZM11.6533 15.5546L11.1574 15.4486L11.7942 12.4794L12.2901 12.5854L11.6533 15.5546ZM13.0832 16.7762L14.0017 17.2737L13.6116 17.5419L13.0832 16.7762ZM14.929 18.0445L14.3126 18.4683C14.1759 18.562 14.0077 18.5978 13.8447 18.5679C13.6817 18.538 13.5372 18.4447 13.4428 18.3085C13.4378 18.3012 13.4342 18.293 13.4324 18.2843C13.4305 18.2757 13.4304 18.2667 13.432 18.258C13.4336 18.2493 13.4369 18.241 13.4418 18.2336C13.4466 18.2261 13.4529 18.2197 13.4602 18.2147L14.4644 17.5242L15.0994 17.868C15.0548 17.9374 14.9969 17.9974 14.929 18.0443V18.0445ZM17.4373 17.6371L16.523 17.8832C16.3464 17.9311 16.1582 17.909 15.9974 17.8216L12.0994 15.7103L12.2751 14.8899L16.4553 16.4056C16.5542 16.4412 16.6397 16.5065 16.7002 16.5925L17.4373 17.6371ZM18.2655 15.3617L16.7244 16.0128L12.3745 14.4273L12.475 13.9585L17.0322 14.2906C17.0751 14.2904 17.1179 14.2875 17.1604 14.2818L18.2655 15.3617ZM17.1982 12.3411C17.3691 12.3281 17.539 12.3771 17.6766 12.4792L18.4233 13.0321L17.3104 13.7414C17.2167 13.8009 17.1063 13.8287 16.9956 13.8208L12.5743 13.496L12.7606 12.6274L17.1982 12.3411ZM12.9341 12.1466L12.5858 12.1691L12.2172 12.0903L13.0692 10.2449C13.1663 10.3023 13.2662 10.3547 13.3686 10.4018C13.4709 10.4488 13.5756 10.4904 13.6822 10.5264L12.9341 12.1466ZM18.7904 7.22033C17.7069 9.56697 15.3626 10.8032 13.5646 9.97596C12.8432 9.64393 12.2989 9.02674 11.9903 8.1908C11.5516 7.00182 11.6532 5.55483 12.2692 4.22084C13.1244 2.36862 14.7651 1.20823 16.3027 1.20823C16.7141 1.20634 17.1209 1.29403 17.495 1.46522C18.2164 1.79725 18.7607 2.41444 19.0692 3.25037C19.5079 4.43936 19.4064 5.88635 18.7904 7.22033Z" fill="#276955"/>
<path d="M4.22746 3.33162L4.18281 3.26459C4.16597 3.23848 4.14412 3.21598 4.11851 3.19839C4.0929 3.1808 4.06404 3.16849 4.03363 3.16215C4.00322 3.15582 3.97185 3.15559 3.94135 3.16149C3.91085 3.16739 3.88182 3.17929 3.85596 3.1965C3.8301 3.21372 3.80792 3.2359 3.79071 3.26177C3.7735 3.28763 3.76161 3.31666 3.75572 3.34716C3.74983 3.37766 3.75006 3.40903 3.7564 3.43945C3.76274 3.46986 3.77507 3.49871 3.79266 3.52431L3.83727 3.59135C3.85419 3.61725 3.87608 3.63956 3.90167 3.65696C3.92726 3.67437 3.95605 3.68653 3.98636 3.69275C4.01668 3.69897 4.04793 3.69913 4.0783 3.69321C4.10868 3.68729 4.13758 3.67542 4.16335 3.65827C4.18911 3.64112 4.21122 3.61904 4.2284 3.5933C4.24559 3.56756 4.2575 3.53867 4.26346 3.5083C4.26943 3.47793 4.26931 3.44668 4.26313 3.41636C4.25695 3.38603 4.24483 3.35723 4.22746 3.33162Z" fill="#276955"/>
<path d="M4.62334 3.92657C4.58858 3.87558 4.5351 3.84036 4.47453 3.82855C4.41396 3.81674 4.35117 3.8293 4.2998 3.8635C4.24843 3.89771 4.21262 3.95079 4.20015 4.01123C4.18768 4.07167 4.19955 4.13459 4.23318 4.18634L5.90374 6.69587C5.92057 6.72198 5.94243 6.74448 5.96804 6.76207C5.99365 6.77965 6.0225 6.79197 6.05292 6.79831C6.08333 6.80464 6.1147 6.80487 6.1452 6.79897C6.1757 6.79307 6.20473 6.78117 6.23059 6.76395C6.25645 6.74674 6.27863 6.72456 6.29584 6.69869C6.31305 6.67283 6.32494 6.6438 6.33083 6.6133C6.33672 6.58279 6.33649 6.55142 6.33015 6.52101C6.32381 6.4906 6.31148 6.46175 6.29389 6.43615L4.62334 3.92657Z" fill="#276955"/>
</svg>
