<svg width="20" height="20" viewBox="0 0 20 20" fill="none" xmlns="http://www.w3.org/2000/svg">
<path fillRule="evenodd" clipRule="evenodd" d="M18.4215 8.07327H5.09444L17.8952 4.36508C17.9947 4.33624 18.0786 4.26895 18.1286 4.17831C18.1787 4.08752 18.1906 3.98071 18.1618 3.88123L17.4919 1.56876C17.2243 0.645142 16.3643 0 15.4005 0C15.1974 0 14.9951 0.0288391 14.7989 0.0856018L2.7803 3.5672C2.22442 3.72818 1.76376 4.09775 1.48284 4.60754C1.20208 5.11734 1.13616 5.70435 1.29714 6.26007L1.95159 8.51929V17.8261C1.95159 19.0248 2.92678 20 4.12536 20H8.81926C9.03502 20 9.20989 19.8251 9.20989 19.6094C9.20989 19.3936 9.03502 19.2188 8.81926 19.2188H4.12551C3.35754 19.2188 2.73284 18.5941 2.73284 17.8261V12.5102H4.73403H4.73495H4.73571H7.79479H7.7957H7.79662H10.8557H10.8566H10.8575H13.9166H13.9175H13.9183H18.0308V17.8261C18.0308 18.5941 17.4061 19.2188 16.6382 19.2188H11.9443C11.7287 19.2188 11.5536 19.3936 11.5536 19.6094C11.5536 19.8251 11.7287 20 11.9443 20H16.6382C17.8369 20 18.8121 19.0248 18.8121 17.8261V8.4639C18.8121 8.24814 18.6372 8.07327 18.4215 8.07327ZM11.5335 11.729L13.1932 8.85452H15.3519L13.6923 11.729H11.5335ZM8.47258 11.729L10.1323 8.85452H12.2909L10.6314 11.729H8.47258ZM5.41183 11.729L7.07137 8.85452H9.23018L7.57049 11.729H5.41183ZM6.86416 6.67206L4.08492 4.00269L6.16729 3.39951C6.18194 3.42087 6.19903 3.44101 6.21856 3.45978L8.99779 6.12915L6.91543 6.73233C6.90078 6.71097 6.88353 6.69067 6.86416 6.67206ZM12.0985 1.75644L14.8778 4.42581L12.7954 5.02899C12.7807 5.00763 12.7637 4.98734 12.7441 4.96872L9.96489 2.29935L12.0473 1.69617C12.0619 1.71753 12.079 1.73767 12.0985 1.75644ZM9.15847 2.60818L11.9377 5.2774L9.85534 5.88074C9.84069 5.85938 9.8236 5.83908 9.80407 5.82047L7.02483 3.15109L9.1072 2.54791C9.122 2.56912 9.13909 2.58942 9.15847 2.60818ZM15.0163 0.836029C15.1417 0.799713 15.271 0.78125 15.4005 0.78125C16.0187 0.78125 16.57 1.19446 16.7415 1.78619L17.3027 3.7233L15.7355 4.17725C15.7207 4.15588 15.7036 4.13574 15.684 4.11697L12.905 1.44775L15.0163 0.836029ZM2.1672 4.98444C2.34725 4.65744 2.6422 4.42062 2.99773 4.31763L3.22723 4.2511C3.24203 4.27246 3.25912 4.29276 3.2785 4.31137L6.05773 6.98074L2.60879 7.97989L2.04757 6.04279C1.94457 5.68741 1.98714 5.31158 2.1672 4.98444ZM2.73284 8.85452H6.16927L4.50973 11.729H2.73284V8.85452ZM14.5944 11.729L16.254 8.85452H18.0308V11.729H14.5944Z" fill="#276955"/>
<path fillRule="evenodd" clipRule="evenodd" d="M13.083 15.8251C13.083 15.6854 13.0085 15.5565 12.8877 15.4868L9.45581 13.5054C9.33496 13.4357 9.18604 13.4357 9.06519 13.5054C8.94434 13.5752 8.86987 13.7041 8.86987 13.8437V17.8064C8.86987 17.9459 8.94434 18.0748 9.06519 18.1446C9.12561 18.1795 9.19305 18.197 9.2605 18.197C9.32794 18.197 9.39539 18.1795 9.45581 18.1446L12.8877 16.1634C13.0085 16.0936 13.083 15.9647 13.083 15.8251ZM9.65112 17.1298V14.5203L11.9111 15.8251L9.65112 17.1298Z" fill="#276955"/>
<path fillRule="evenodd" clipRule="evenodd" d="M10.3818 19.2188C10.1667 19.2188 9.99121 19.3942 9.99121 19.6094C9.99121 19.8245 10.1667 20 10.3818 20C10.5971 20 10.7725 19.8245 10.7725 19.6094C10.7725 19.3942 10.5971 19.2188 10.3818 19.2188Z" fill="#276955"/>
</svg>
