<svg width="28" height="28" viewBox="0 0 28 28" fill="none" xmlns="http://www.w3.org/2000/svg">
<circle opacity="0.15" cx="14" cy="14" r="14" fill="#EEEEEE"/>
<path d="M15.4546 13.8293C13.4502 13.8293 11.8184 12.1975 11.8184 10.1929C11.8184 8.18848 13.4502 6.55664 15.4546 6.55664C17.4592 6.55664 19.091 8.18848 19.091 10.1929C19.091 12.1975 17.4592 13.8293 15.4546 13.8293ZM15.4546 7.28387C13.8501 7.28387 12.5456 8.58838 12.5456 10.1929C12.5456 11.7975 13.8501 13.1021 15.4546 13.1021C17.0592 13.1021 18.3638 11.7975 18.3638 10.1929C18.3638 8.58838 17.0592 7.28387 15.4546 7.28387Z" fill="white"/>
<path d="M22.0001 21.4658H8.90918V21.1021C8.90918 17.493 11.8455 14.5566 15.4546 14.5566C19.0637 14.5566 22.0001 17.493 22.0001 21.1021V21.4658ZM9.65012 20.7385H21.2638C21.0774 17.6975 18.5411 15.284 15.4546 15.284C12.3683 15.284 9.83656 17.6975 9.65012 20.7385Z" fill="white"/>
<path d="M6 13.1025H11.0909V13.8298H6V13.1025Z" fill="white"/>
<path d="M8.18164 10.9209H8.90887V16.0118H8.18164V10.9209Z" fill="white"/>
</svg>
