<svg width="20" height="20" viewBox="0 0 20 20" fill="none" xmlns="http://www.w3.org/2000/svg">
<g clipPath="url(#clip0_2421_5426)">
<path d="M6.58173 19.598C7.3512 19.598 7.97498 18.9742 7.97498 18.2048C7.97498 17.4353 7.3512 16.8115 6.58173 16.8115C5.81226 16.8115 5.18848 17.4353 5.18848 18.2048C5.18848 18.9742 5.81226 19.598 6.58173 19.598Z" fill="white"/>
<path d="M15.0466 19.598C15.816 19.598 16.4398 18.9742 16.4398 18.2048C16.4398 17.4353 15.816 16.8115 15.0466 16.8115C14.2771 16.8115 13.6533 17.4353 13.6533 18.2048C13.6533 18.9742 14.2771 19.598 15.0466 19.598Z" fill="white"/>
<path d="M12.3034 4.11735C12.2752 3.91214 12.2607 3.70527 12.26 3.49813C12.2607 3.29099 12.2752 3.08412 12.3034 2.87891H5.44238L5.84488 4.11735H12.3034Z" fill="white"/>
<path d="M16.9043 8.1425H16.6443L15.8702 11.5482H6.5819L3.75206 2.58808C3.72145 2.493 3.66829 2.40674 3.59713 2.33665C3.52596 2.26657 3.4389 2.21474 3.34337 2.18558L0.804558 1.40536C0.726494 1.38137 0.644468 1.373 0.563166 1.38071C0.481864 1.38842 0.402876 1.41207 0.330713 1.45031C0.184974 1.52753 0.0758817 1.65949 0.0274345 1.81715C-0.0210128 1.9748 -0.00484598 2.14525 0.0723783 2.29099C0.149602 2.43673 0.281558 2.54582 0.439217 2.59427L2.66222 3.27541L5.50445 12.2541L4.48893 13.0839L4.40843 13.1644C4.15724 13.4539 4.01485 13.8219 4.00581 14.2051C3.99677 14.5882 4.12163 14.9625 4.35889 15.2636C4.52767 15.4688 4.74213 15.6317 4.98514 15.7392C5.22814 15.8467 5.49293 15.8959 5.75834 15.8828H16.0932C16.2574 15.8828 16.4149 15.8175 16.531 15.7014C16.6471 15.5853 16.7124 15.4278 16.7124 15.2636C16.7124 15.0993 16.6471 14.9418 16.531 14.8257C16.4149 14.7096 16.2574 14.6443 16.0932 14.6443H5.65926C5.58795 14.6419 5.51848 14.6211 5.45755 14.584C5.39663 14.5469 5.3463 14.4947 5.31144 14.4324C5.27658 14.3702 5.25836 14.3 5.25855 14.2286C5.25873 14.1573 5.27731 14.0872 5.3125 14.0251L6.80482 12.7867H16.3656C16.5087 12.7902 16.6487 12.7439 16.7616 12.6559C16.8745 12.5678 16.9534 12.4434 16.9848 12.3037L17.957 8.02485C17.6117 8.10403 17.2586 8.1435 16.9043 8.1425Z" fill="white"/>
<path d="M16.9037 6.59456C18.6137 6.59456 19.9998 5.20839 19.9998 3.49845C19.9998 1.78852 18.6137 0.402344 16.9037 0.402344C15.1938 0.402344 13.8076 1.78852 13.8076 3.49845C13.8076 5.20839 15.1938 6.59456 16.9037 6.59456Z" fill="#F1B940"/>
</g>
<defs>
<clipPath id="clip0_2421_5426">
<rect width="20" height="20" fill="white"/>
</clipPath>
</defs>
</svg>
