<svg width="24" height="25" viewBox="0 0 24 25" fill="none" xmlns="http://www.w3.org/2000/svg">
<path d="M2 6.5C2 6.23478 2.10536 5.98043 2.29289 5.79289C2.48043 5.60536 2.73478 5.5 3 5.5H21C21.2652 5.5 21.5196 5.60536 21.7071 5.79289C21.8946 5.98043 22 6.23478 22 6.5C22 6.76522 21.8946 7.01957 21.7071 7.20711C21.5196 7.39464 21.2652 7.5 21 7.5H3C2.73478 7.5 2.48043 7.39464 2.29289 7.20711C2.10536 7.01957 2 6.76522 2 6.5Z" fill="#276955"/>
<path d="M2 12.5322C2 12.267 2.10536 12.0127 2.29289 11.8251C2.48043 11.6376 2.73478 11.5322 3 11.5322H21C21.2652 11.5322 21.5196 11.6376 21.7071 11.8251C21.8946 12.0127 22 12.267 22 12.5322C22 12.7974 21.8946 13.0518 21.7071 13.2393C21.5196 13.4269 21.2652 13.5322 21 13.5322H3C2.73478 13.5322 2.48043 13.4269 2.29289 13.2393C2.10536 13.0518 2 12.7974 2 12.5322Z" fill="#276955"/>
<path d="M3 17.5645C2.73478 17.5645 2.48043 17.6698 2.29289 17.8573C2.10536 18.0449 2 18.2992 2 18.5645C2 18.8297 2.10536 19.084 2.29289 19.2716C2.48043 19.4591 2.73478 19.5645 3 19.5645H21C21.2652 19.5645 21.5196 19.4591 21.7071 19.2716C21.8946 19.084 22 18.8297 22 18.5645C22 18.2992 21.8946 18.0449 21.7071 17.8573C21.5196 17.6698 21.2652 17.5645 21 17.5645H3Z" fill="#276955"/>
</svg>
