<svg width="105" height="26" viewBox="0 0 105 26" fill="none" xmlns="http://www.w3.org/2000/svg">
<path d="M4.86141 12.5968C5.96971 11.4879 5.96971 9.67339 4.86141 8.56452C3.75311 7.45565 1.93953 7.45565 0.831226 8.56452C-0.277075 9.67339 -0.277075 11.4879 0.831226 12.5968C1.93953 13.7056 3.75311 13.7056 4.86141 12.5968ZM4.86141 24.6263C5.96971 23.5175 5.96971 21.703 4.86141 20.5941C3.75311 19.4852 1.93953 19.4852 0.831226 20.5941C-0.277075 21.703 -0.277075 23.5175 0.831226 24.6263C1.93953 25.7352 3.75311 25.7352 4.86141 24.6263Z" fill="white"/>
<path d="M9.51554 1.50806V25.0296H18.8521C22.0763 25.0296 24.7631 23.8871 26.9125 21.6358C29.0955 19.3844 30.1702 16.5954 30.1702 13.2688C30.1702 9.9422 29.0955 7.15323 26.9125 4.90188C24.7631 2.65054 22.0763 1.50806 18.8521 1.50806H9.51554ZM14.1503 20.5941V5.94355H18.8521C20.9008 5.94355 22.5465 6.61559 23.8227 7.99328C25.0989 9.33737 25.737 11.0847 25.737 13.2688C25.737 15.453 25.0989 17.2003 23.8227 18.578C22.5465 19.922 20.9008 20.5941 18.8521 20.5941H14.1503Z" fill="white"/>
<path d="M46.0186 10.211C44.7088 8.56452 42.8952 7.75806 40.5443 7.75806C38.2941 7.75806 36.3798 8.63172 34.7677 10.3454C33.1892 12.0591 32.3832 14.1425 32.3832 16.629C32.3832 19.1156 33.1892 21.2325 34.7677 22.9462C36.3798 24.6599 38.2941 25.5 40.5443 25.5C42.8952 25.5 44.7088 24.6935 46.0186 23.047V25.0296H50.3511V8.22849H46.0186V10.211ZM38.0254 20.0564C37.1522 19.1492 36.7156 18.0067 36.7156 16.629C36.7156 15.2513 37.1522 14.1089 38.0254 13.2352C38.8986 12.328 40.0069 11.8911 41.3503 11.8911C42.6937 11.8911 43.802 12.328 44.6752 13.2352C45.582 14.1089 46.0186 15.2513 46.0186 16.629C46.0186 18.0067 45.582 19.1492 44.6752 20.0564C43.802 20.9301 42.6937 21.3669 41.3503 21.3669C40.0069 21.3669 38.8986 20.9301 38.0254 20.0564Z" fill="white"/>
<path d="M62.8103 16.5282L69.5609 8.22849H64.3888L58.6122 15.621V1.50806H54.2797V25.0296H58.6122V17.4019L64.7246 25.0296H69.7624L62.8103 16.5282Z" fill="white"/>
<path d="M86.2321 22.9462C87.9449 21.2325 88.8181 19.1156 88.8181 16.629C88.8181 14.1425 87.9449 12.0591 86.2321 10.3454C84.5192 8.63172 82.4034 7.75806 79.9181 7.75806C77.4328 7.75806 75.317 8.63172 73.6042 10.3454C71.8913 12.0591 71.0517 14.1425 71.0517 16.629C71.0517 19.1156 71.8913 21.2325 73.6042 22.9462C75.317 24.6599 77.4328 25.5 79.9181 25.5C82.4034 25.5 84.5192 24.6599 86.2321 22.9462ZM76.6604 19.9556C75.8208 19.082 75.3842 17.9731 75.3842 16.629C75.3842 15.2849 75.8208 14.1761 76.6604 13.3024C77.5336 12.4288 78.6083 11.9919 79.9181 11.9919C81.2279 11.9919 82.3027 12.4288 83.1759 13.3024C84.0491 14.1761 84.4857 15.2849 84.4857 16.629C84.4857 17.9731 84.0491 19.082 83.1759 19.9556C82.3027 20.8293 81.2279 21.2661 79.9181 21.2661C78.6083 21.2661 77.5336 20.8293 76.6604 19.9556Z" fill="white"/>
<path d="M96.1984 25.0296V0.5H91.8659V25.0296H96.1984Z" fill="white"/>
<path d="M102.313 6.75C103.791 6.75 105 5.57392 105 4.16263C105 2.75134 103.791 1.54167 102.313 1.54167C100.869 1.54167 99.66 2.75134 99.66 4.16263C99.66 5.57392 100.869 6.75 102.313 6.75ZM104.496 25.0296V8.22849H100.164V25.0296H104.496Z" fill="white"/>
</svg>
