<svg width="28" height="28" viewBox="0 0 28 28" fill="none" xmlns="http://www.w3.org/2000/svg">
<circle opacity="0.15" cx="14" cy="14" r="14" fill="#EEEEEE"/>
<g clipPath="url(#clip0_2421_5453)">
<path d="M14 6C9.57861 6 6 9.578 6 14C6 15.4032 6.36597 16.7737 7.06091 17.9824L6.03015 21.1834C5.95825 21.4065 6.01733 21.6511 6.18311 21.8169C6.34729 21.9811 6.59131 22.0424 6.81665 21.9699L10.0176 20.9391C11.2263 21.634 12.5968 22 14 22C18.4214 22 22 18.422 22 14C22 9.57861 18.422 6 14 6ZM14 20.75C12.7325 20.75 11.4971 20.3964 10.4271 19.7273C10.2732 19.6311 10.082 19.6051 9.90417 19.6624L7.5935 20.4065L8.33764 18.0958C8.39404 17.9205 8.37024 17.7291 8.27258 17.5729C7.60364 16.5029 7.25 15.2675 7.25 14C7.25 10.2781 10.2781 7.25 14 7.25C17.7219 7.25 20.75 10.2781 20.75 14C20.75 17.7219 17.7219 20.75 14 20.75ZM14.7812 14C14.7812 14.4314 14.4315 14.7813 14 14.7813C13.5685 14.7813 13.2187 14.4314 13.2187 14C13.2187 13.5685 13.5685 13.2188 14 13.2188C14.4315 13.2188 14.7812 13.5685 14.7812 14ZM17.9062 14C17.9062 14.4314 17.5565 14.7813 17.125 14.7813C16.6935 14.7813 16.3437 14.4314 16.3437 14C16.3437 13.5685 16.6935 13.2188 17.125 13.2188C17.5565 13.2188 17.9062 13.5685 17.9062 14ZM11.6562 14C11.6562 14.4314 11.3065 14.7813 10.875 14.7813C10.4436 14.7813 10.0937 14.4314 10.0937 14C10.0937 13.5685 10.4436 13.2188 10.875 13.2188C11.3065 13.2188 11.6562 13.5685 11.6562 14Z" fill="white"/>
</g>
<defs>
<clipPath id="clip0_2421_5453">
<rect width="16" height="16" fill="white" transform="translate(6 6)"/>
</clipPath>
</defs>
</svg>
