<svg width="24" height="25" viewBox="0 0 24 25" fill="none" xmlns="http://www.w3.org/2000/svg">
<path d="M9.31002 7.20978C9.21732 7.30229 9.14377 7.41218 9.09359 7.53315C9.04341 7.65413 9.01758 7.78381 9.01758 7.91478C9.01758 8.04575 9.04341 8.17543 9.09359 8.2964C9.14377 8.41738 9.21732 8.52726 9.31002 8.61978L13.19 12.4998L9.31002 16.3798C9.12304 16.5668 9.018 16.8204 9.018 17.0848C9.018 17.3492 9.12304 17.6028 9.31002 17.7898C9.497 17.9768 9.7506 18.0818 10.015 18.0818C10.2794 18.0818 10.533 17.9768 10.72 17.7898L15.31 13.1998C15.4027 13.1073 15.4763 12.9974 15.5265 12.8764C15.5766 12.7554 15.6025 12.6257 15.6025 12.4948C15.6025 12.3638 15.5766 12.2341 15.5265 12.1132C15.4763 11.9922 15.4027 11.8823 15.31 11.7898L10.72 7.19978C10.34 6.81978 9.70002 6.81978 9.31002 7.20978Z" fill="#1B1B1B"/>
</svg>
