<svg width="28" height="28" viewBox="0 0 28 28" fill="none" xmlns="http://www.w3.org/2000/svg">
<circle opacity="0.15" cx="14" cy="14" r="14" fill="#EEEEEE"/>
<g clip-path="url(#clip0_2421_5457)">
<path d="M19.1617 16.1187V13.0787C19.1617 10.8206 17.7165 8.85163 15.7268 8.11615C15.7501 8.00001 15.7629 7.88132 15.7629 7.76259C15.763 6.78969 14.9733 6 14.0004 6C13.0275 6 12.2378 6.78969 12.2378 7.76259C12.2378 7.87873 12.2507 7.99483 12.2713 8.10581C11.5875 8.34839 10.9552 8.7329 10.4159 9.25419C9.39911 10.2348 8.83911 11.5535 8.83911 12.9677V16.1187C8.83911 16.2297 8.74878 16.3226 8.63523 16.3226C7.68297 16.3226 6.87005 17.04 6.78231 17.9536C6.73326 18.462 6.90104 18.9678 7.24425 19.3445C7.58489 19.7188 8.07265 19.9355 8.58101 19.9355H11.6933C11.8223 21.0943 12.8081 22 14.0004 22C15.1927 22 16.1785 21.0943 16.3075 19.9355H19.4198C19.9282 19.9355 20.4159 19.7188 20.7565 19.3445C21.0972 18.9678 21.2649 18.462 21.2185 17.9536C21.1307 17.04 20.3153 16.3226 19.3656 16.3226C19.252 16.3226 19.1617 16.2322 19.1617 16.1187ZM14.0004 7.03224C14.403 7.03224 14.7307 7.35998 14.7307 7.76255C14.7307 7.79607 14.7255 7.82706 14.7204 7.86059C14.5449 7.83478 14.3668 7.81672 14.1887 7.81155C13.8816 7.8012 13.5797 7.82189 13.2803 7.86318C13.2752 7.82965 13.27 7.79866 13.27 7.76513C13.2701 7.35998 13.5978 7.03224 14.0004 7.03224ZM14.0004 20.9677C13.3785 20.9677 12.8572 20.5238 12.7359 19.9355H15.2649C15.1437 20.5239 14.6224 20.9677 14.0004 20.9677ZM20.1914 18.0516C20.212 18.2736 20.1423 18.4878 19.9952 18.6503C19.843 18.8129 19.6417 18.9032 19.4198 18.9032H8.58105C8.35911 18.9032 8.15785 18.8129 8.00813 18.6503C7.85846 18.4878 7.78877 18.2735 7.80942 18.0516C7.84553 17.6619 8.20944 17.3548 8.63523 17.3548C9.31653 17.3548 9.87135 16.8 9.87135 16.1187V12.9677C9.87135 11.8374 10.3204 10.7819 11.1333 9.99743C11.9101 9.24648 12.9217 8.8387 14.0004 8.8387C14.052 8.8387 14.101 8.8387 14.1527 8.84129C16.3436 8.91869 18.1294 10.8206 18.1294 13.0787V16.1187C18.1294 16.8 18.6843 17.3548 19.3656 17.3548C19.7914 17.3548 20.1527 17.6619 20.1914 18.0516Z" fill="white"/>
</g>
<defs>
<clipPath id="clip0_2421_5457">
<rect width="16" height="16" fill="white" transform="translate(6 6)"/>
</clipPath>
</defs>
</svg>
