<svg width="24" height="25" viewBox="0 0 24 25" fill="none" xmlns="http://www.w3.org/2000/svg">
<path d="M14.69 17.7902C14.7827 17.6977 14.8562 17.5878 14.9064 17.4668C14.9566 17.3459 14.9824 17.2162 14.9824 17.0852C14.9824 16.9543 14.9566 16.8246 14.9064 16.7036C14.8562 16.5826 14.7827 16.4727 14.69 16.3802L10.81 12.5002L14.69 8.62022C14.877 8.43324 14.982 8.17965 14.982 7.91522C14.982 7.6508 14.877 7.3972 14.69 7.21022C14.503 7.02324 14.2494 6.9182 13.985 6.9182C13.7206 6.9182 13.467 7.02324 13.28 7.21022L8.68998 11.8002C8.59727 11.8927 8.52373 12.0026 8.47355 12.1236C8.42336 12.2446 8.39753 12.3743 8.39753 12.5052C8.39753 12.6362 8.42336 12.7659 8.47355 12.8868C8.52373 13.0078 8.59727 13.1177 8.68998 13.2102L13.28 17.8002C13.66 18.1802 14.3 18.1802 14.69 17.7902Z" fill="#1B1B1B"/>
</svg>
