<svg width="32" height="18" viewBox="0 0 32 18" fill="none" xmlns="http://www.w3.org/2000/svg">
<path d="M32 0.666992H0V17.3338H32V0.666992Z" fill="#EEEEEE"/>
<path d="M32 2.75H0V4.83315H32V2.75Z" fill="#E40F0A"/>
<path d="M32 6.91699H0V9.00014H32V6.91699Z" fill="#E40F0A"/>
<path d="M32 11.083H0V13.1662H32V11.083Z" fill="#E40F0A"/>
<path d="M32 15.25H0V17.3332H32V15.25Z" fill="#E40F0A"/>
<path d="M16 0.666992H0V9.64146H16V0.666992Z" fill="#2E52B2"/>
<path d="M6.2384 4.34277L5.98072 4.96211H5.14722L5.82165 5.34468L5.56397 5.96396L6.2384 5.5814L6.91241 5.96396L6.65478 5.34468L7.32922 4.96211H6.49566L6.2384 4.34277Z" fill="#EEEEEE"/>
<path d="M6.49566 7.19644L6.2384 6.57715L5.98072 7.19644H5.14722L5.82165 7.57905L5.56397 8.19834L6.2384 7.81572L6.91241 8.19834L6.65478 7.57905L7.32922 7.19644H6.49566Z" fill="#EEEEEE"/>
<path d="M2.9735 7.19644L2.71619 6.57715L2.4585 7.19644H1.625L2.29944 7.57905L2.04175 8.19834L2.71619 7.81572L3.39025 8.19834L3.13262 7.57905L3.80694 7.19644H2.9735Z" fill="#EEEEEE"/>
<path d="M2.71619 4.34277L2.4585 4.96211H1.625L2.29944 5.34468L2.04175 5.96396L2.71619 5.5814L3.39025 5.96396L3.13262 5.34468L3.80694 4.96211H2.9735L2.71619 4.34277Z" fill="#EEEEEE"/>
<path d="M6.2384 2.10742L5.98072 2.72681H5.14722L5.82165 3.10942L5.56397 3.72871L6.2384 3.34609L6.91241 3.72871L6.65478 3.10942L7.32922 2.72681H6.49566L6.2384 2.10742Z" fill="#EEEEEE"/>
<path d="M2.71619 2.10742L2.4585 2.72681H1.625L2.29944 3.10942L2.04175 3.72871L2.71619 3.34609L3.39025 3.72871L3.13262 3.10942L3.80694 2.72681H2.9735L2.71619 2.10742Z" fill="#EEEEEE"/>
<path d="M9.76178 4.34277L9.50415 4.96211H8.67065L9.34503 5.34468L9.08747 5.96396L9.76178 5.5814L10.4359 5.96396L10.1782 5.34468L10.8527 4.96211H10.0192L9.76178 4.34277Z" fill="#EEEEEE"/>
<path d="M10.0192 7.19644L9.76178 6.57715L9.50415 7.19644H8.67065L9.34503 7.57905L9.08747 8.19834L9.76178 7.81572L10.4359 8.19834L10.1782 7.57905L10.8527 7.19644H10.0192Z" fill="#EEEEEE"/>
<path d="M13.5411 7.19644L13.2838 6.57715L13.0261 7.19644H12.1926L12.8669 7.57905L12.6093 8.19834L13.2838 7.81572L13.9578 8.19834L13.7001 7.57905L14.3746 7.19644H13.5411Z" fill="#EEEEEE"/>
<path d="M13.2838 4.34277L13.0261 4.96211H12.1926L12.8669 5.34468L12.6093 5.96396L13.2838 5.5814L13.9578 5.96396L13.7001 5.34468L14.3746 4.96211H13.5411L13.2838 4.34277Z" fill="#EEEEEE"/>
<path d="M9.76178 2.10742L9.50415 2.72681H8.67065L9.34503 3.10942L9.08747 3.72871L9.76178 3.34609L10.4359 3.72871L10.1782 3.10942L10.8527 2.72681H10.0192L9.76178 2.10742Z" fill="#EEEEEE"/>
<path d="M13.2838 2.10742L13.0261 2.72681H12.1926L12.8669 3.10942L12.6093 3.72871L13.2838 3.34609L13.9578 3.72871L13.7001 3.10942L14.3746 2.72681H13.5411L13.2838 2.10742Z" fill="#EEEEEE"/>
</svg>
